<mxfile host="app.diagrams.net" modified="2022-11-08T08:58:18.623Z" agent="5.0 (Macintosh; Intel Mac OS X 10_15_7) AppleWebKit/537.36 (KHTML, like Gecko) Chrome/107.0.0.0 Safari/537.36" etag="CM2E7cSekHfNr_bBQCPZ" version="20.5.3" type="github">
  <diagram id="vxwXVc4O11nveCgwnPNl" name="第 1 页">
    <mxGraphModel dx="1584" dy="882" grid="1" gridSize="10" guides="1" tooltips="1" connect="1" arrows="1" fold="1" page="1" pageScale="1" pageWidth="827" pageHeight="1169" math="0" shadow="0">
      <root>
        <mxCell id="0" />
        <mxCell id="1" parent="0" />
        <mxCell id="mRPW338xSlPoaJrdeVlL-1" value="All Features Embedding" style="rounded=0;whiteSpace=wrap;html=1;fillColor=#fff2cc;strokeColor=#d6b656;gradientColor=#ffd966;" vertex="1" parent="1">
          <mxGeometry x="220" y="300" width="880" height="20" as="geometry" />
        </mxCell>
        <mxCell id="mRPW338xSlPoaJrdeVlL-2" value="&lt;font style=&quot;font-size: 12px;&quot;&gt;pCTCVR&lt;/font&gt;" style="text;html=1;strokeColor=none;fillColor=none;align=center;verticalAlign=middle;whiteSpace=wrap;rounded=0;fontSize=21;" vertex="1" parent="1">
          <mxGeometry x="618.5" y="30" width="60" height="30" as="geometry" />
        </mxCell>
        <mxCell id="mRPW338xSlPoaJrdeVlL-3" value="" style="group" vertex="1" connectable="0" parent="1">
          <mxGeometry x="905" y="321.65" width="135" height="200" as="geometry" />
        </mxCell>
        <mxCell id="mRPW338xSlPoaJrdeVlL-4" value="" style="group" vertex="1" connectable="0" parent="mRPW338xSlPoaJrdeVlL-3">
          <mxGeometry x="5" width="50" height="165" as="geometry" />
        </mxCell>
        <mxCell id="mRPW338xSlPoaJrdeVlL-5" value="" style="group" vertex="1" connectable="0" parent="mRPW338xSlPoaJrdeVlL-4">
          <mxGeometry y="25" width="50" height="65" as="geometry" />
        </mxCell>
        <mxCell id="mRPW338xSlPoaJrdeVlL-6" value="" style="group" vertex="1" connectable="0" parent="mRPW338xSlPoaJrdeVlL-5">
          <mxGeometry x="5" width="40" height="10" as="geometry" />
        </mxCell>
        <mxCell id="mRPW338xSlPoaJrdeVlL-7" value="" style="rounded=0;whiteSpace=wrap;html=1;fontSize=22;strokeColor=none;fillColor=#000000;" vertex="1" parent="mRPW338xSlPoaJrdeVlL-6">
          <mxGeometry width="10" height="10" as="geometry" />
        </mxCell>
        <mxCell id="mRPW338xSlPoaJrdeVlL-8" style="edgeStyle=none;rounded=0;orthogonalLoop=1;jettySize=auto;html=1;exitX=1;exitY=1;exitDx=0;exitDy=0;fontSize=22;strokeColor=none;" edge="1" parent="mRPW338xSlPoaJrdeVlL-6" source="mRPW338xSlPoaJrdeVlL-7" target="mRPW338xSlPoaJrdeVlL-7">
          <mxGeometry relative="1" as="geometry" />
        </mxCell>
        <mxCell id="mRPW338xSlPoaJrdeVlL-9" value="" style="rounded=0;whiteSpace=wrap;html=1;fontSize=22;strokeColor=none;fillColor=#BFBFBF;" vertex="1" parent="mRPW338xSlPoaJrdeVlL-6">
          <mxGeometry x="10" width="10" height="10" as="geometry" />
        </mxCell>
        <mxCell id="mRPW338xSlPoaJrdeVlL-10" value="" style="rounded=0;whiteSpace=wrap;html=1;fontSize=22;strokeColor=none;fillColor=#000000;" vertex="1" parent="mRPW338xSlPoaJrdeVlL-6">
          <mxGeometry x="20" width="10" height="10" as="geometry" />
        </mxCell>
        <mxCell id="mRPW338xSlPoaJrdeVlL-11" value="" style="rounded=0;whiteSpace=wrap;html=1;fontSize=22;strokeColor=none;fillColor=#BFBFBF;" vertex="1" parent="mRPW338xSlPoaJrdeVlL-6">
          <mxGeometry x="30" width="10" height="10" as="geometry" />
        </mxCell>
        <mxCell id="mRPW338xSlPoaJrdeVlL-12" value="" style="shape=curlyBracket;whiteSpace=wrap;html=1;rounded=1;flipH=1;fontSize=22;strokeColor=#000000;fillColor=#000000;rotation=-90;size=0.5;" vertex="1" parent="mRPW338xSlPoaJrdeVlL-5">
          <mxGeometry x="15" y="30" width="20" height="50" as="geometry" />
        </mxCell>
        <mxCell id="mRPW338xSlPoaJrdeVlL-13" value="&lt;font style=&quot;font-size: 11px;&quot;&gt;concat&lt;/font&gt;" style="rounded=1;whiteSpace=wrap;html=1;fontSize=11;strokeColor=#000000;fillColor=none;" vertex="1" parent="mRPW338xSlPoaJrdeVlL-5">
          <mxGeometry x="2.5" y="20" width="45" height="20" as="geometry" />
        </mxCell>
        <mxCell id="mRPW338xSlPoaJrdeVlL-14" value="" style="rounded=0;whiteSpace=wrap;html=1;fontSize=22;strokeColor=none;fillColor=#000000;" vertex="1" parent="mRPW338xSlPoaJrdeVlL-4">
          <mxGeometry x="10" y="90" width="10" height="10" as="geometry" />
        </mxCell>
        <mxCell id="mRPW338xSlPoaJrdeVlL-15" value="" style="rounded=0;whiteSpace=wrap;html=1;fontSize=22;strokeColor=none;fillColor=#BFBFBF;" vertex="1" parent="mRPW338xSlPoaJrdeVlL-4">
          <mxGeometry x="10" y="100" width="10" height="10" as="geometry" />
        </mxCell>
        <mxCell id="mRPW338xSlPoaJrdeVlL-16" value="" style="rounded=0;whiteSpace=wrap;html=1;fontSize=22;strokeColor=none;fillColor=#000000;" vertex="1" parent="mRPW338xSlPoaJrdeVlL-4">
          <mxGeometry x="10" y="110" width="10" height="10" as="geometry" />
        </mxCell>
        <mxCell id="mRPW338xSlPoaJrdeVlL-17" value="" style="rounded=0;whiteSpace=wrap;html=1;fontSize=22;strokeColor=none;fillColor=#BFBFBF;" vertex="1" parent="mRPW338xSlPoaJrdeVlL-4">
          <mxGeometry x="10" y="120" width="10" height="10" as="geometry" />
        </mxCell>
        <mxCell id="mRPW338xSlPoaJrdeVlL-18" value="" style="rounded=0;whiteSpace=wrap;html=1;fontSize=22;strokeColor=none;fillColor=#000000;" vertex="1" parent="mRPW338xSlPoaJrdeVlL-4">
          <mxGeometry x="30" y="90" width="10" height="10" as="geometry" />
        </mxCell>
        <mxCell id="mRPW338xSlPoaJrdeVlL-19" value="" style="rounded=0;whiteSpace=wrap;html=1;fontSize=22;strokeColor=none;fillColor=#BFBFBF;" vertex="1" parent="mRPW338xSlPoaJrdeVlL-4">
          <mxGeometry x="30" y="100" width="10" height="10" as="geometry" />
        </mxCell>
        <mxCell id="mRPW338xSlPoaJrdeVlL-20" value="" style="rounded=0;whiteSpace=wrap;html=1;fontSize=22;strokeColor=none;fillColor=#000000;" vertex="1" parent="mRPW338xSlPoaJrdeVlL-4">
          <mxGeometry x="30" y="110" width="10" height="15" as="geometry" />
        </mxCell>
        <mxCell id="mRPW338xSlPoaJrdeVlL-21" value="" style="rounded=0;whiteSpace=wrap;html=1;fontSize=22;strokeColor=none;fillColor=#BFBFBF;" vertex="1" parent="mRPW338xSlPoaJrdeVlL-4">
          <mxGeometry x="30" y="120" width="10" height="10" as="geometry" />
        </mxCell>
        <mxCell id="mRPW338xSlPoaJrdeVlL-22" value="" style="ellipse;whiteSpace=wrap;html=1;aspect=fixed;fontSize=11;strokeColor=#000000;fillColor=none;" vertex="1" parent="mRPW338xSlPoaJrdeVlL-4">
          <mxGeometry x="10" y="155" width="10" height="10" as="geometry" />
        </mxCell>
        <mxCell id="mRPW338xSlPoaJrdeVlL-23" value="" style="ellipse;whiteSpace=wrap;html=1;aspect=fixed;fontSize=11;strokeColor=#000000;fillColor=none;" vertex="1" parent="mRPW338xSlPoaJrdeVlL-4">
          <mxGeometry x="30" y="155" width="10" height="10" as="geometry" />
        </mxCell>
        <mxCell id="mRPW338xSlPoaJrdeVlL-24" value="" style="endArrow=classic;html=1;rounded=0;fontSize=11;exitX=0.5;exitY=0;exitDx=0;exitDy=0;entryX=0.5;entryY=1;entryDx=0;entryDy=0;" edge="1" parent="mRPW338xSlPoaJrdeVlL-4" source="mRPW338xSlPoaJrdeVlL-22" target="mRPW338xSlPoaJrdeVlL-17">
          <mxGeometry width="50" height="50" relative="1" as="geometry">
            <mxPoint x="-20" y="65" as="sourcePoint" />
            <mxPoint x="30" y="15" as="targetPoint" />
          </mxGeometry>
        </mxCell>
        <mxCell id="mRPW338xSlPoaJrdeVlL-25" value="" style="endArrow=classic;html=1;rounded=0;fontSize=11;exitX=0.5;exitY=0;exitDx=0;exitDy=0;entryX=0.5;entryY=1;entryDx=0;entryDy=0;" edge="1" parent="mRPW338xSlPoaJrdeVlL-4" source="mRPW338xSlPoaJrdeVlL-23" target="mRPW338xSlPoaJrdeVlL-21">
          <mxGeometry width="50" height="50" relative="1" as="geometry">
            <mxPoint x="34.81999999999999" y="155" as="sourcePoint" />
            <mxPoint x="34.81999999999999" y="130" as="targetPoint" />
          </mxGeometry>
        </mxCell>
        <mxCell id="mRPW338xSlPoaJrdeVlL-26" value="" style="endArrow=classic;html=1;rounded=0;fontSize=11;exitX=0.5;exitY=0;exitDx=0;exitDy=0;entryX=0.5;entryY=1;entryDx=0;entryDy=0;" edge="1" parent="mRPW338xSlPoaJrdeVlL-4">
          <mxGeometry width="50" height="50" relative="1" as="geometry">
            <mxPoint x="24.84999999999991" y="25" as="sourcePoint" />
            <mxPoint x="24.84999999999991" as="targetPoint" />
          </mxGeometry>
        </mxCell>
        <mxCell id="mRPW338xSlPoaJrdeVlL-27" value="" style="group" vertex="1" connectable="0" parent="mRPW338xSlPoaJrdeVlL-3">
          <mxGeometry x="75" width="50" height="165" as="geometry" />
        </mxCell>
        <mxCell id="mRPW338xSlPoaJrdeVlL-28" value="" style="group" vertex="1" connectable="0" parent="mRPW338xSlPoaJrdeVlL-27">
          <mxGeometry y="25" width="50" height="65" as="geometry" />
        </mxCell>
        <mxCell id="mRPW338xSlPoaJrdeVlL-29" value="" style="group" vertex="1" connectable="0" parent="mRPW338xSlPoaJrdeVlL-28">
          <mxGeometry x="5" width="40" height="10" as="geometry" />
        </mxCell>
        <mxCell id="mRPW338xSlPoaJrdeVlL-30" value="" style="rounded=0;whiteSpace=wrap;html=1;fontSize=22;strokeColor=none;fillColor=#000000;" vertex="1" parent="mRPW338xSlPoaJrdeVlL-29">
          <mxGeometry width="10" height="10" as="geometry" />
        </mxCell>
        <mxCell id="mRPW338xSlPoaJrdeVlL-31" style="edgeStyle=none;rounded=0;orthogonalLoop=1;jettySize=auto;html=1;exitX=1;exitY=1;exitDx=0;exitDy=0;fontSize=22;strokeColor=none;" edge="1" parent="mRPW338xSlPoaJrdeVlL-29" source="mRPW338xSlPoaJrdeVlL-30" target="mRPW338xSlPoaJrdeVlL-30">
          <mxGeometry relative="1" as="geometry" />
        </mxCell>
        <mxCell id="mRPW338xSlPoaJrdeVlL-32" value="" style="rounded=0;whiteSpace=wrap;html=1;fontSize=22;strokeColor=none;fillColor=#BFBFBF;" vertex="1" parent="mRPW338xSlPoaJrdeVlL-29">
          <mxGeometry x="10" width="10" height="10" as="geometry" />
        </mxCell>
        <mxCell id="mRPW338xSlPoaJrdeVlL-33" value="" style="rounded=0;whiteSpace=wrap;html=1;fontSize=22;strokeColor=none;fillColor=#000000;" vertex="1" parent="mRPW338xSlPoaJrdeVlL-29">
          <mxGeometry x="20" width="10" height="10" as="geometry" />
        </mxCell>
        <mxCell id="mRPW338xSlPoaJrdeVlL-34" value="" style="rounded=0;whiteSpace=wrap;html=1;fontSize=22;strokeColor=none;fillColor=#BFBFBF;" vertex="1" parent="mRPW338xSlPoaJrdeVlL-29">
          <mxGeometry x="30" width="10" height="10" as="geometry" />
        </mxCell>
        <mxCell id="mRPW338xSlPoaJrdeVlL-35" value="" style="shape=curlyBracket;whiteSpace=wrap;html=1;rounded=1;flipH=1;fontSize=22;strokeColor=#000000;fillColor=#000000;rotation=-90;size=0.5;" vertex="1" parent="mRPW338xSlPoaJrdeVlL-28">
          <mxGeometry x="15" y="30" width="20" height="50" as="geometry" />
        </mxCell>
        <mxCell id="mRPW338xSlPoaJrdeVlL-36" value="&lt;font style=&quot;font-size: 11px;&quot;&gt;concat&lt;/font&gt;" style="rounded=1;whiteSpace=wrap;html=1;fontSize=11;strokeColor=#000000;fillColor=none;" vertex="1" parent="mRPW338xSlPoaJrdeVlL-28">
          <mxGeometry x="2.5" y="20" width="45" height="20" as="geometry" />
        </mxCell>
        <mxCell id="mRPW338xSlPoaJrdeVlL-37" value="" style="rounded=0;whiteSpace=wrap;html=1;fontSize=22;strokeColor=none;fillColor=#000000;" vertex="1" parent="mRPW338xSlPoaJrdeVlL-27">
          <mxGeometry x="10" y="90" width="10" height="10" as="geometry" />
        </mxCell>
        <mxCell id="mRPW338xSlPoaJrdeVlL-38" value="" style="rounded=0;whiteSpace=wrap;html=1;fontSize=22;strokeColor=none;fillColor=#BFBFBF;" vertex="1" parent="mRPW338xSlPoaJrdeVlL-27">
          <mxGeometry x="10" y="100" width="10" height="10" as="geometry" />
        </mxCell>
        <mxCell id="mRPW338xSlPoaJrdeVlL-39" value="" style="rounded=0;whiteSpace=wrap;html=1;fontSize=22;strokeColor=none;fillColor=#000000;" vertex="1" parent="mRPW338xSlPoaJrdeVlL-27">
          <mxGeometry x="10" y="110" width="10" height="10" as="geometry" />
        </mxCell>
        <mxCell id="mRPW338xSlPoaJrdeVlL-40" value="" style="rounded=0;whiteSpace=wrap;html=1;fontSize=22;strokeColor=none;fillColor=#BFBFBF;" vertex="1" parent="mRPW338xSlPoaJrdeVlL-27">
          <mxGeometry x="10" y="120" width="10" height="10" as="geometry" />
        </mxCell>
        <mxCell id="mRPW338xSlPoaJrdeVlL-41" value="" style="rounded=0;whiteSpace=wrap;html=1;fontSize=22;strokeColor=none;fillColor=#000000;" vertex="1" parent="mRPW338xSlPoaJrdeVlL-27">
          <mxGeometry x="30" y="90" width="10" height="10" as="geometry" />
        </mxCell>
        <mxCell id="mRPW338xSlPoaJrdeVlL-42" value="" style="rounded=0;whiteSpace=wrap;html=1;fontSize=22;strokeColor=none;fillColor=#BFBFBF;" vertex="1" parent="mRPW338xSlPoaJrdeVlL-27">
          <mxGeometry x="30" y="100" width="10" height="10" as="geometry" />
        </mxCell>
        <mxCell id="mRPW338xSlPoaJrdeVlL-43" value="" style="rounded=0;whiteSpace=wrap;html=1;fontSize=22;strokeColor=none;fillColor=#000000;" vertex="1" parent="mRPW338xSlPoaJrdeVlL-27">
          <mxGeometry x="30" y="110" width="10" height="15" as="geometry" />
        </mxCell>
        <mxCell id="mRPW338xSlPoaJrdeVlL-44" value="" style="rounded=0;whiteSpace=wrap;html=1;fontSize=22;strokeColor=none;fillColor=#BFBFBF;" vertex="1" parent="mRPW338xSlPoaJrdeVlL-27">
          <mxGeometry x="30" y="120" width="10" height="10" as="geometry" />
        </mxCell>
        <mxCell id="mRPW338xSlPoaJrdeVlL-45" value="" style="ellipse;whiteSpace=wrap;html=1;aspect=fixed;fontSize=11;strokeColor=#000000;fillColor=none;" vertex="1" parent="mRPW338xSlPoaJrdeVlL-27">
          <mxGeometry x="10" y="155" width="10" height="10" as="geometry" />
        </mxCell>
        <mxCell id="mRPW338xSlPoaJrdeVlL-46" value="" style="ellipse;whiteSpace=wrap;html=1;aspect=fixed;fontSize=11;strokeColor=#000000;fillColor=none;" vertex="1" parent="mRPW338xSlPoaJrdeVlL-27">
          <mxGeometry x="30" y="155" width="10" height="10" as="geometry" />
        </mxCell>
        <mxCell id="mRPW338xSlPoaJrdeVlL-47" value="" style="endArrow=classic;html=1;rounded=0;fontSize=11;exitX=0.5;exitY=0;exitDx=0;exitDy=0;entryX=0.5;entryY=1;entryDx=0;entryDy=0;" edge="1" parent="mRPW338xSlPoaJrdeVlL-27" source="mRPW338xSlPoaJrdeVlL-45" target="mRPW338xSlPoaJrdeVlL-40">
          <mxGeometry width="50" height="50" relative="1" as="geometry">
            <mxPoint x="-20" y="65" as="sourcePoint" />
            <mxPoint x="30" y="15" as="targetPoint" />
          </mxGeometry>
        </mxCell>
        <mxCell id="mRPW338xSlPoaJrdeVlL-48" value="" style="endArrow=classic;html=1;rounded=0;fontSize=11;exitX=0.5;exitY=0;exitDx=0;exitDy=0;entryX=0.5;entryY=1;entryDx=0;entryDy=0;" edge="1" parent="mRPW338xSlPoaJrdeVlL-27" source="mRPW338xSlPoaJrdeVlL-46" target="mRPW338xSlPoaJrdeVlL-44">
          <mxGeometry width="50" height="50" relative="1" as="geometry">
            <mxPoint x="34.81999999999999" y="155" as="sourcePoint" />
            <mxPoint x="34.81999999999999" y="130" as="targetPoint" />
          </mxGeometry>
        </mxCell>
        <mxCell id="mRPW338xSlPoaJrdeVlL-49" value="" style="endArrow=classic;html=1;rounded=0;fontSize=11;exitX=0.5;exitY=0;exitDx=0;exitDy=0;entryX=0.5;entryY=1;entryDx=0;entryDy=0;" edge="1" parent="mRPW338xSlPoaJrdeVlL-27">
          <mxGeometry width="50" height="50" relative="1" as="geometry">
            <mxPoint x="24.849999999999966" y="25" as="sourcePoint" />
            <mxPoint x="24.849999999999966" as="targetPoint" />
          </mxGeometry>
        </mxCell>
        <mxCell id="mRPW338xSlPoaJrdeVlL-50" value="UI&lt;br&gt;Features" style="text;html=1;strokeColor=none;fillColor=none;align=center;verticalAlign=middle;whiteSpace=wrap;rounded=0;fontSize=11;" vertex="1" parent="mRPW338xSlPoaJrdeVlL-3">
          <mxGeometry y="170" width="60" height="30" as="geometry" />
        </mxCell>
        <mxCell id="mRPW338xSlPoaJrdeVlL-51" value="User Profile&lt;br&gt;Features" style="text;html=1;strokeColor=none;fillColor=none;align=center;verticalAlign=middle;whiteSpace=wrap;rounded=0;fontSize=11;" vertex="1" parent="mRPW338xSlPoaJrdeVlL-3">
          <mxGeometry x="70" y="170" width="65" height="30" as="geometry" />
        </mxCell>
        <mxCell id="mRPW338xSlPoaJrdeVlL-52" value="" style="group" vertex="1" connectable="0" parent="1">
          <mxGeometry x="576.5" y="320" width="40" height="35" as="geometry" />
        </mxCell>
        <mxCell id="mRPW338xSlPoaJrdeVlL-53" value="" style="group" vertex="1" connectable="0" parent="mRPW338xSlPoaJrdeVlL-52">
          <mxGeometry y="25" width="40" height="10" as="geometry" />
        </mxCell>
        <mxCell id="mRPW338xSlPoaJrdeVlL-54" value="" style="rounded=0;whiteSpace=wrap;html=1;fontSize=22;strokeColor=none;fillColor=#CDA2BE;" vertex="1" parent="mRPW338xSlPoaJrdeVlL-53">
          <mxGeometry width="10" height="10" as="geometry" />
        </mxCell>
        <mxCell id="mRPW338xSlPoaJrdeVlL-55" style="edgeStyle=none;rounded=0;orthogonalLoop=1;jettySize=auto;html=1;exitX=1;exitY=1;exitDx=0;exitDy=0;fontSize=22;strokeColor=none;" edge="1" parent="mRPW338xSlPoaJrdeVlL-53" source="mRPW338xSlPoaJrdeVlL-54" target="mRPW338xSlPoaJrdeVlL-54">
          <mxGeometry relative="1" as="geometry" />
        </mxCell>
        <mxCell id="mRPW338xSlPoaJrdeVlL-56" value="" style="rounded=0;whiteSpace=wrap;html=1;fontSize=22;strokeColor=none;fillColor=#FFCE9F;" vertex="1" parent="mRPW338xSlPoaJrdeVlL-53">
          <mxGeometry x="10" width="10" height="10" as="geometry" />
        </mxCell>
        <mxCell id="mRPW338xSlPoaJrdeVlL-57" value="" style="rounded=0;whiteSpace=wrap;html=1;fontSize=22;strokeColor=none;fillColor=#CDA2BE;" vertex="1" parent="mRPW338xSlPoaJrdeVlL-53">
          <mxGeometry x="20" width="10" height="10" as="geometry" />
        </mxCell>
        <mxCell id="mRPW338xSlPoaJrdeVlL-58" value="" style="rounded=0;whiteSpace=wrap;html=1;fontSize=22;strokeColor=none;fillColor=#FFCE9F;" vertex="1" parent="mRPW338xSlPoaJrdeVlL-53">
          <mxGeometry x="30" width="10" height="10" as="geometry" />
        </mxCell>
        <mxCell id="mRPW338xSlPoaJrdeVlL-59" value="" style="endArrow=classic;html=1;rounded=0;fontSize=11;exitX=0.5;exitY=0;exitDx=0;exitDy=0;entryX=0.5;entryY=1;entryDx=0;entryDy=0;" edge="1" parent="mRPW338xSlPoaJrdeVlL-52">
          <mxGeometry width="50" height="50" relative="1" as="geometry">
            <mxPoint x="19.84999999999991" y="25" as="sourcePoint" />
            <mxPoint x="19.84999999999991" as="targetPoint" />
          </mxGeometry>
        </mxCell>
        <mxCell id="mRPW338xSlPoaJrdeVlL-60" value="&lt;font style=&quot;font-size: 11px;&quot;&gt;concat&lt;/font&gt;" style="rounded=1;whiteSpace=wrap;html=1;fontSize=11;strokeColor=#000000;fillColor=none;" vertex="1" parent="1">
          <mxGeometry x="573.5" y="360" width="45" height="20" as="geometry" />
        </mxCell>
        <mxCell id="mRPW338xSlPoaJrdeVlL-61" value="" style="shape=curlyBracket;whiteSpace=wrap;html=1;rounded=1;flipH=1;fontSize=22;strokeColor=#000000;fillColor=#000000;rotation=-90;size=0.5;" vertex="1" parent="1">
          <mxGeometry x="586" y="260" width="20" height="260" as="geometry" />
        </mxCell>
        <mxCell id="mRPW338xSlPoaJrdeVlL-62" value="" style="group" vertex="1" connectable="0" parent="1">
          <mxGeometry x="1040" y="321.65" width="65" height="200" as="geometry" />
        </mxCell>
        <mxCell id="mRPW338xSlPoaJrdeVlL-63" value="" style="group" vertex="1" connectable="0" parent="mRPW338xSlPoaJrdeVlL-62">
          <mxGeometry x="5" width="50" height="165" as="geometry" />
        </mxCell>
        <mxCell id="mRPW338xSlPoaJrdeVlL-64" value="" style="group" vertex="1" connectable="0" parent="mRPW338xSlPoaJrdeVlL-63">
          <mxGeometry y="25" width="50" height="65" as="geometry" />
        </mxCell>
        <mxCell id="mRPW338xSlPoaJrdeVlL-65" value="" style="group" vertex="1" connectable="0" parent="mRPW338xSlPoaJrdeVlL-64">
          <mxGeometry x="5" width="40" height="10" as="geometry" />
        </mxCell>
        <mxCell id="mRPW338xSlPoaJrdeVlL-66" value="" style="rounded=0;whiteSpace=wrap;html=1;fontSize=22;strokeColor=none;fillColor=#000000;" vertex="1" parent="mRPW338xSlPoaJrdeVlL-65">
          <mxGeometry width="10" height="10" as="geometry" />
        </mxCell>
        <mxCell id="mRPW338xSlPoaJrdeVlL-67" style="edgeStyle=none;rounded=0;orthogonalLoop=1;jettySize=auto;html=1;exitX=1;exitY=1;exitDx=0;exitDy=0;fontSize=22;strokeColor=none;" edge="1" parent="mRPW338xSlPoaJrdeVlL-65" source="mRPW338xSlPoaJrdeVlL-66" target="mRPW338xSlPoaJrdeVlL-66">
          <mxGeometry relative="1" as="geometry" />
        </mxCell>
        <mxCell id="mRPW338xSlPoaJrdeVlL-68" value="" style="rounded=0;whiteSpace=wrap;html=1;fontSize=22;strokeColor=none;fillColor=#BFBFBF;" vertex="1" parent="mRPW338xSlPoaJrdeVlL-65">
          <mxGeometry x="10" width="10" height="10" as="geometry" />
        </mxCell>
        <mxCell id="mRPW338xSlPoaJrdeVlL-69" value="" style="rounded=0;whiteSpace=wrap;html=1;fontSize=22;strokeColor=none;fillColor=#000000;" vertex="1" parent="mRPW338xSlPoaJrdeVlL-65">
          <mxGeometry x="20" width="10" height="10" as="geometry" />
        </mxCell>
        <mxCell id="mRPW338xSlPoaJrdeVlL-70" value="" style="rounded=0;whiteSpace=wrap;html=1;fontSize=22;strokeColor=none;fillColor=#BFBFBF;" vertex="1" parent="mRPW338xSlPoaJrdeVlL-65">
          <mxGeometry x="30" width="10" height="10" as="geometry" />
        </mxCell>
        <mxCell id="mRPW338xSlPoaJrdeVlL-71" value="" style="shape=curlyBracket;whiteSpace=wrap;html=1;rounded=1;flipH=1;fontSize=22;strokeColor=#000000;fillColor=#000000;rotation=-90;size=0.5;" vertex="1" parent="mRPW338xSlPoaJrdeVlL-64">
          <mxGeometry x="15" y="30" width="20" height="50" as="geometry" />
        </mxCell>
        <mxCell id="mRPW338xSlPoaJrdeVlL-72" value="&lt;font style=&quot;font-size: 11px;&quot;&gt;concat&lt;/font&gt;" style="rounded=1;whiteSpace=wrap;html=1;fontSize=11;strokeColor=#000000;fillColor=none;" vertex="1" parent="mRPW338xSlPoaJrdeVlL-64">
          <mxGeometry x="2.5" y="20" width="45" height="20" as="geometry" />
        </mxCell>
        <mxCell id="mRPW338xSlPoaJrdeVlL-73" value="" style="rounded=0;whiteSpace=wrap;html=1;fontSize=22;strokeColor=none;fillColor=#000000;" vertex="1" parent="mRPW338xSlPoaJrdeVlL-63">
          <mxGeometry x="10" y="90" width="10" height="10" as="geometry" />
        </mxCell>
        <mxCell id="mRPW338xSlPoaJrdeVlL-74" value="" style="rounded=0;whiteSpace=wrap;html=1;fontSize=22;strokeColor=none;fillColor=#BFBFBF;" vertex="1" parent="mRPW338xSlPoaJrdeVlL-63">
          <mxGeometry x="10" y="100" width="10" height="10" as="geometry" />
        </mxCell>
        <mxCell id="mRPW338xSlPoaJrdeVlL-75" value="" style="rounded=0;whiteSpace=wrap;html=1;fontSize=22;strokeColor=none;fillColor=#000000;" vertex="1" parent="mRPW338xSlPoaJrdeVlL-63">
          <mxGeometry x="10" y="110" width="10" height="10" as="geometry" />
        </mxCell>
        <mxCell id="mRPW338xSlPoaJrdeVlL-76" value="" style="rounded=0;whiteSpace=wrap;html=1;fontSize=22;strokeColor=none;fillColor=#BFBFBF;" vertex="1" parent="mRPW338xSlPoaJrdeVlL-63">
          <mxGeometry x="10" y="120" width="10" height="10" as="geometry" />
        </mxCell>
        <mxCell id="mRPW338xSlPoaJrdeVlL-77" value="" style="rounded=0;whiteSpace=wrap;html=1;fontSize=22;strokeColor=none;fillColor=#000000;" vertex="1" parent="mRPW338xSlPoaJrdeVlL-63">
          <mxGeometry x="30" y="90" width="10" height="10" as="geometry" />
        </mxCell>
        <mxCell id="mRPW338xSlPoaJrdeVlL-78" value="" style="rounded=0;whiteSpace=wrap;html=1;fontSize=22;strokeColor=none;fillColor=#BFBFBF;" vertex="1" parent="mRPW338xSlPoaJrdeVlL-63">
          <mxGeometry x="30" y="100" width="10" height="10" as="geometry" />
        </mxCell>
        <mxCell id="mRPW338xSlPoaJrdeVlL-79" value="" style="rounded=0;whiteSpace=wrap;html=1;fontSize=22;strokeColor=none;fillColor=#000000;" vertex="1" parent="mRPW338xSlPoaJrdeVlL-63">
          <mxGeometry x="30" y="110" width="10" height="15" as="geometry" />
        </mxCell>
        <mxCell id="mRPW338xSlPoaJrdeVlL-80" value="" style="rounded=0;whiteSpace=wrap;html=1;fontSize=22;strokeColor=none;fillColor=#BFBFBF;" vertex="1" parent="mRPW338xSlPoaJrdeVlL-63">
          <mxGeometry x="30" y="120" width="10" height="10" as="geometry" />
        </mxCell>
        <mxCell id="mRPW338xSlPoaJrdeVlL-81" value="" style="ellipse;whiteSpace=wrap;html=1;aspect=fixed;fontSize=11;strokeColor=#000000;fillColor=none;" vertex="1" parent="mRPW338xSlPoaJrdeVlL-63">
          <mxGeometry x="10" y="155" width="10" height="10" as="geometry" />
        </mxCell>
        <mxCell id="mRPW338xSlPoaJrdeVlL-82" value="" style="ellipse;whiteSpace=wrap;html=1;aspect=fixed;fontSize=11;strokeColor=#000000;fillColor=none;" vertex="1" parent="mRPW338xSlPoaJrdeVlL-63">
          <mxGeometry x="30" y="155" width="10" height="10" as="geometry" />
        </mxCell>
        <mxCell id="mRPW338xSlPoaJrdeVlL-83" value="" style="endArrow=classic;html=1;rounded=0;fontSize=11;exitX=0.5;exitY=0;exitDx=0;exitDy=0;entryX=0.5;entryY=1;entryDx=0;entryDy=0;" edge="1" parent="mRPW338xSlPoaJrdeVlL-63" source="mRPW338xSlPoaJrdeVlL-81" target="mRPW338xSlPoaJrdeVlL-76">
          <mxGeometry width="50" height="50" relative="1" as="geometry">
            <mxPoint x="-20" y="65" as="sourcePoint" />
            <mxPoint x="30" y="15" as="targetPoint" />
          </mxGeometry>
        </mxCell>
        <mxCell id="mRPW338xSlPoaJrdeVlL-84" value="" style="endArrow=classic;html=1;rounded=0;fontSize=11;exitX=0.5;exitY=0;exitDx=0;exitDy=0;entryX=0.5;entryY=1;entryDx=0;entryDy=0;" edge="1" parent="mRPW338xSlPoaJrdeVlL-63" source="mRPW338xSlPoaJrdeVlL-82" target="mRPW338xSlPoaJrdeVlL-80">
          <mxGeometry width="50" height="50" relative="1" as="geometry">
            <mxPoint x="34.81999999999999" y="155" as="sourcePoint" />
            <mxPoint x="34.81999999999999" y="130" as="targetPoint" />
          </mxGeometry>
        </mxCell>
        <mxCell id="mRPW338xSlPoaJrdeVlL-85" value="" style="endArrow=classic;html=1;rounded=0;fontSize=11;exitX=0.5;exitY=0;exitDx=0;exitDy=0;entryX=0.5;entryY=1;entryDx=0;entryDy=0;" edge="1" parent="mRPW338xSlPoaJrdeVlL-63">
          <mxGeometry width="50" height="50" relative="1" as="geometry">
            <mxPoint x="24.849999999999966" y="25" as="sourcePoint" />
            <mxPoint x="24.849999999999966" as="targetPoint" />
          </mxGeometry>
        </mxCell>
        <mxCell id="mRPW338xSlPoaJrdeVlL-86" value="Cross&lt;br&gt;Features" style="text;html=1;strokeColor=none;fillColor=none;align=center;verticalAlign=middle;whiteSpace=wrap;rounded=0;fontSize=11;" vertex="1" parent="mRPW338xSlPoaJrdeVlL-62">
          <mxGeometry y="170" width="65" height="30" as="geometry" />
        </mxCell>
        <mxCell id="mRPW338xSlPoaJrdeVlL-87" value="" style="group" vertex="1" connectable="0" parent="1">
          <mxGeometry x="490" y="431.65" width="80" height="120" as="geometry" />
        </mxCell>
        <mxCell id="mRPW338xSlPoaJrdeVlL-88" value="" style="group" vertex="1" connectable="0" parent="mRPW338xSlPoaJrdeVlL-87">
          <mxGeometry x="2.692307692307692" width="40" height="44.57142857142857" as="geometry" />
        </mxCell>
        <mxCell id="mRPW338xSlPoaJrdeVlL-89" value="" style="shape=curlyBracket;whiteSpace=wrap;html=1;rounded=1;flipH=1;fontSize=22;strokeColor=#000000;fillColor=#000000;rotation=-90;size=0.5;" vertex="1" parent="mRPW338xSlPoaJrdeVlL-88">
          <mxGeometry x="18.076923076923077" y="36.62142857142857" width="10.769230769230768" height="34.285714285714285" as="geometry" />
        </mxCell>
        <mxCell id="mRPW338xSlPoaJrdeVlL-90" value="&lt;font style=&quot;font-size: 11px;&quot;&gt;concat&lt;/font&gt;" style="rounded=1;whiteSpace=wrap;html=1;fontSize=11;strokeColor=#000000;fillColor=none;" vertex="1" parent="mRPW338xSlPoaJrdeVlL-88">
          <mxGeometry x="4.14" y="36.05" width="38.65" height="10.43" as="geometry" />
        </mxCell>
        <mxCell id="mRPW338xSlPoaJrdeVlL-91" value="" style="rounded=0;whiteSpace=wrap;html=1;fontSize=22;strokeColor=none;fillColor=#CDA2BE;" vertex="1" parent="mRPW338xSlPoaJrdeVlL-87">
          <mxGeometry x="18.076923076923077" y="60.62142857142857" width="5.384615384615384" height="6.857142857142857" as="geometry" />
        </mxCell>
        <mxCell id="mRPW338xSlPoaJrdeVlL-92" value="" style="rounded=0;whiteSpace=wrap;html=1;fontSize=22;strokeColor=none;fillColor=#E6D0DE;" vertex="1" parent="mRPW338xSlPoaJrdeVlL-87">
          <mxGeometry x="18.076923076923077" y="67.47857142857143" width="5.384615384615384" height="6.857142857142857" as="geometry" />
        </mxCell>
        <mxCell id="mRPW338xSlPoaJrdeVlL-93" value="" style="rounded=0;whiteSpace=wrap;html=1;fontSize=22;strokeColor=none;fillColor=#CDA2BE;" vertex="1" parent="mRPW338xSlPoaJrdeVlL-87">
          <mxGeometry x="18.076923076923077" y="74.33571428571429" width="5.384615384615384" height="6.857142857142857" as="geometry" />
        </mxCell>
        <mxCell id="mRPW338xSlPoaJrdeVlL-94" value="" style="rounded=0;whiteSpace=wrap;html=1;fontSize=22;strokeColor=none;fillColor=#E6D0DE;" vertex="1" parent="mRPW338xSlPoaJrdeVlL-87">
          <mxGeometry x="18.076923076923077" y="81.19285714285714" width="5.384615384615384" height="6.857142857142857" as="geometry" />
        </mxCell>
        <mxCell id="mRPW338xSlPoaJrdeVlL-95" value="" style="rounded=0;whiteSpace=wrap;html=1;fontSize=22;strokeColor=none;fillColor=#FFB570;" vertex="1" parent="mRPW338xSlPoaJrdeVlL-87">
          <mxGeometry x="29.996153846153845" y="60.62142857142857" width="5.384615384615384" height="6.857142857142857" as="geometry" />
        </mxCell>
        <mxCell id="mRPW338xSlPoaJrdeVlL-96" value="" style="rounded=0;whiteSpace=wrap;html=1;fontSize=22;strokeColor=none;fillColor=#FFCE9F;" vertex="1" parent="mRPW338xSlPoaJrdeVlL-87">
          <mxGeometry x="29.996153846153845" y="67.47857142857143" width="5.384615384615384" height="6.857142857142857" as="geometry" />
        </mxCell>
        <mxCell id="mRPW338xSlPoaJrdeVlL-97" value="" style="rounded=0;whiteSpace=wrap;html=1;fontSize=22;strokeColor=none;fillColor=#FFB570;" vertex="1" parent="mRPW338xSlPoaJrdeVlL-87">
          <mxGeometry x="29.996153846153845" y="74.33571428571429" width="5.384615384615384" height="10.285714285714285" as="geometry" />
        </mxCell>
        <mxCell id="mRPW338xSlPoaJrdeVlL-98" value="" style="rounded=0;whiteSpace=wrap;html=1;fontSize=22;strokeColor=none;fillColor=#FFCE9F;" vertex="1" parent="mRPW338xSlPoaJrdeVlL-87">
          <mxGeometry x="29.996153846153845" y="81.19285714285714" width="5.384615384615384" height="6.857142857142857" as="geometry" />
        </mxCell>
        <mxCell id="mRPW338xSlPoaJrdeVlL-99" value="" style="ellipse;whiteSpace=wrap;html=1;aspect=fixed;fontSize=11;strokeColor=#000000;fillColor=none;" vertex="1" parent="mRPW338xSlPoaJrdeVlL-87">
          <mxGeometry x="18.076923076923077" y="105.19285714285714" width="4.615384615384615" height="4.615384615384615" as="geometry" />
        </mxCell>
        <mxCell id="mRPW338xSlPoaJrdeVlL-100" value="" style="ellipse;whiteSpace=wrap;html=1;aspect=fixed;fontSize=11;strokeColor=#000000;fillColor=none;" vertex="1" parent="mRPW338xSlPoaJrdeVlL-87">
          <mxGeometry x="29.996153846153845" y="105.19285714285714" width="4.615384615384615" height="4.615384615384615" as="geometry" />
        </mxCell>
        <mxCell id="mRPW338xSlPoaJrdeVlL-101" value="" style="endArrow=classic;html=1;rounded=0;fontSize=11;exitX=0.5;exitY=0;exitDx=0;exitDy=0;entryX=0.5;entryY=1;entryDx=0;entryDy=0;" edge="1" parent="mRPW338xSlPoaJrdeVlL-87" source="mRPW338xSlPoaJrdeVlL-99" target="mRPW338xSlPoaJrdeVlL-94">
          <mxGeometry width="50" height="50" relative="1" as="geometry">
            <mxPoint x="-313.07692307692304" y="-169.09285714285713" as="sourcePoint" />
            <mxPoint x="-286.15384615384613" y="-203.3785714285714" as="targetPoint" />
          </mxGeometry>
        </mxCell>
        <mxCell id="mRPW338xSlPoaJrdeVlL-102" value="" style="endArrow=classic;html=1;rounded=0;fontSize=11;exitX=0.5;exitY=0;exitDx=0;exitDy=0;entryX=0.5;entryY=1;entryDx=0;entryDy=0;" edge="1" parent="mRPW338xSlPoaJrdeVlL-87" source="mRPW338xSlPoaJrdeVlL-100" target="mRPW338xSlPoaJrdeVlL-98">
          <mxGeometry width="50" height="50" relative="1" as="geometry">
            <mxPoint x="-282.4084615384616" y="-107.37857142857142" as="sourcePoint" />
            <mxPoint x="-282.4084615384616" y="-124.52142857142854" as="targetPoint" />
          </mxGeometry>
        </mxCell>
        <mxCell id="mRPW338xSlPoaJrdeVlL-103" value="&lt;font style=&quot;font-size: 9px;&quot; face=&quot;Georgia&quot;&gt;&lt;i&gt;Item &lt;sub&gt;s1&lt;/sub&gt;&lt;/i&gt;&lt;/font&gt;" style="text;html=1;strokeColor=none;fillColor=none;align=center;verticalAlign=middle;whiteSpace=wrap;rounded=0;fontSize=11;" vertex="1" parent="mRPW338xSlPoaJrdeVlL-87">
          <mxGeometry x="-7.309999999999999" y="105.19000000000001" width="60" height="20.57" as="geometry" />
        </mxCell>
        <mxCell id="mRPW338xSlPoaJrdeVlL-104" value="" style="endArrow=classic;html=1;rounded=0;fontSize=11;edgeStyle=orthogonalEdgeStyle;strokeColor=#FF8000;" edge="1" parent="mRPW338xSlPoaJrdeVlL-87">
          <mxGeometry width="50" height="50" relative="1" as="geometry">
            <mxPoint x="352" y="-59.64999999999998" as="sourcePoint" />
            <mxPoint x="53" y="10" as="targetPoint" />
            <Array as="points">
              <mxPoint x="292" y="-60" />
              <mxPoint x="292" y="30" />
              <mxPoint x="53" y="30" />
            </Array>
          </mxGeometry>
        </mxCell>
        <mxCell id="mRPW338xSlPoaJrdeVlL-105" style="edgeStyle=orthogonalEdgeStyle;rounded=0;orthogonalLoop=1;jettySize=auto;html=1;exitX=0.5;exitY=0;exitDx=0;exitDy=0;entryX=1;entryY=0.5;entryDx=0;entryDy=0;fontFamily=Georgia;fontSize=11;" edge="1" parent="1" source="mRPW338xSlPoaJrdeVlL-106" target="mRPW338xSlPoaJrdeVlL-108">
          <mxGeometry relative="1" as="geometry">
            <Array as="points">
              <mxPoint x="527" y="421.65" />
            </Array>
          </mxGeometry>
        </mxCell>
        <mxCell id="mRPW338xSlPoaJrdeVlL-106" value="&lt;font style=&quot;font-size: 10px;&quot;&gt;Activation&lt;br&gt;&lt;/font&gt;" style="rounded=1;whiteSpace=wrap;html=1;fontSize=11;strokeColor=#000000;fillColor=none;" vertex="1" parent="1">
          <mxGeometry x="498.0799999999999" y="431.65" width="57.92" height="10" as="geometry" />
        </mxCell>
        <mxCell id="mRPW338xSlPoaJrdeVlL-107" style="edgeStyle=none;rounded=0;orthogonalLoop=1;jettySize=auto;html=1;exitX=0.5;exitY=0;exitDx=0;exitDy=0;fontFamily=Georgia;fontSize=10;" edge="1" parent="1" source="mRPW338xSlPoaJrdeVlL-90">
          <mxGeometry relative="1" as="geometry">
            <mxPoint x="516" y="441.6500000000001" as="targetPoint" />
          </mxGeometry>
        </mxCell>
        <mxCell id="mRPW338xSlPoaJrdeVlL-108" value="&lt;font style=&quot;font-size: 11px;&quot;&gt;✖️&lt;/font&gt;" style="ellipse;whiteSpace=wrap;html=1;aspect=fixed;fontStyle=0" vertex="1" parent="1">
          <mxGeometry x="481" y="416.65" width="10" height="10" as="geometry" />
        </mxCell>
        <mxCell id="mRPW338xSlPoaJrdeVlL-109" style="edgeStyle=orthogonalEdgeStyle;rounded=0;orthogonalLoop=1;jettySize=auto;html=1;exitX=0;exitY=0.5;exitDx=0;exitDy=0;entryX=0.5;entryY=1;entryDx=0;entryDy=0;fontFamily=Georgia;fontSize=11;" edge="1" parent="1" source="mRPW338xSlPoaJrdeVlL-90" target="mRPW338xSlPoaJrdeVlL-108">
          <mxGeometry relative="1" as="geometry">
            <Array as="points">
              <mxPoint x="486" y="472.65" />
            </Array>
          </mxGeometry>
        </mxCell>
        <mxCell id="mRPW338xSlPoaJrdeVlL-110" value="" style="group" vertex="1" connectable="0" parent="1">
          <mxGeometry x="569" y="431.65" width="80" height="120" as="geometry" />
        </mxCell>
        <mxCell id="mRPW338xSlPoaJrdeVlL-111" value="" style="group" vertex="1" connectable="0" parent="mRPW338xSlPoaJrdeVlL-110">
          <mxGeometry x="2.692307692307692" width="40" height="44.57142857142857" as="geometry" />
        </mxCell>
        <mxCell id="mRPW338xSlPoaJrdeVlL-112" value="" style="shape=curlyBracket;whiteSpace=wrap;html=1;rounded=1;flipH=1;fontSize=22;strokeColor=#000000;fillColor=#000000;rotation=-90;size=0.5;" vertex="1" parent="mRPW338xSlPoaJrdeVlL-111">
          <mxGeometry x="18.076923076923077" y="36.62142857142857" width="10.769230769230768" height="34.285714285714285" as="geometry" />
        </mxCell>
        <mxCell id="mRPW338xSlPoaJrdeVlL-113" value="&lt;font style=&quot;font-size: 11px;&quot;&gt;concat&lt;/font&gt;" style="rounded=1;whiteSpace=wrap;html=1;fontSize=11;strokeColor=#000000;fillColor=none;" vertex="1" parent="mRPW338xSlPoaJrdeVlL-111">
          <mxGeometry x="4.14" y="36.05" width="38.65" height="10.43" as="geometry" />
        </mxCell>
        <mxCell id="mRPW338xSlPoaJrdeVlL-114" value="" style="rounded=0;whiteSpace=wrap;html=1;fontSize=22;strokeColor=none;fillColor=#CDA2BE;" vertex="1" parent="mRPW338xSlPoaJrdeVlL-110">
          <mxGeometry x="18.076923076923077" y="60.62142857142857" width="5.384615384615384" height="6.857142857142857" as="geometry" />
        </mxCell>
        <mxCell id="mRPW338xSlPoaJrdeVlL-115" value="" style="rounded=0;whiteSpace=wrap;html=1;fontSize=22;strokeColor=none;fillColor=#E6D0DE;" vertex="1" parent="mRPW338xSlPoaJrdeVlL-110">
          <mxGeometry x="18.076923076923077" y="67.47857142857143" width="5.384615384615384" height="6.857142857142857" as="geometry" />
        </mxCell>
        <mxCell id="mRPW338xSlPoaJrdeVlL-116" value="" style="rounded=0;whiteSpace=wrap;html=1;fontSize=22;strokeColor=none;fillColor=#CDA2BE;" vertex="1" parent="mRPW338xSlPoaJrdeVlL-110">
          <mxGeometry x="18.076923076923077" y="74.33571428571429" width="5.384615384615384" height="6.857142857142857" as="geometry" />
        </mxCell>
        <mxCell id="mRPW338xSlPoaJrdeVlL-117" value="" style="rounded=0;whiteSpace=wrap;html=1;fontSize=22;strokeColor=none;fillColor=#E6D0DE;" vertex="1" parent="mRPW338xSlPoaJrdeVlL-110">
          <mxGeometry x="18.076923076923077" y="81.19285714285714" width="5.384615384615384" height="6.857142857142857" as="geometry" />
        </mxCell>
        <mxCell id="mRPW338xSlPoaJrdeVlL-118" value="" style="rounded=0;whiteSpace=wrap;html=1;fontSize=22;strokeColor=none;fillColor=#FFB570;" vertex="1" parent="mRPW338xSlPoaJrdeVlL-110">
          <mxGeometry x="29.996153846153845" y="60.62142857142857" width="5.384615384615384" height="6.857142857142857" as="geometry" />
        </mxCell>
        <mxCell id="mRPW338xSlPoaJrdeVlL-119" value="" style="rounded=0;whiteSpace=wrap;html=1;fontSize=22;strokeColor=none;fillColor=#FFCE9F;" vertex="1" parent="mRPW338xSlPoaJrdeVlL-110">
          <mxGeometry x="29.996153846153845" y="67.47857142857143" width="5.384615384615384" height="6.857142857142857" as="geometry" />
        </mxCell>
        <mxCell id="mRPW338xSlPoaJrdeVlL-120" value="" style="rounded=0;whiteSpace=wrap;html=1;fontSize=22;strokeColor=none;fillColor=#FFB570;" vertex="1" parent="mRPW338xSlPoaJrdeVlL-110">
          <mxGeometry x="29.996153846153845" y="74.33571428571429" width="5.384615384615384" height="10.285714285714285" as="geometry" />
        </mxCell>
        <mxCell id="mRPW338xSlPoaJrdeVlL-121" value="" style="rounded=0;whiteSpace=wrap;html=1;fontSize=22;strokeColor=none;fillColor=#FFCE9F;" vertex="1" parent="mRPW338xSlPoaJrdeVlL-110">
          <mxGeometry x="29.996153846153845" y="81.19285714285714" width="5.384615384615384" height="6.857142857142857" as="geometry" />
        </mxCell>
        <mxCell id="mRPW338xSlPoaJrdeVlL-122" value="" style="ellipse;whiteSpace=wrap;html=1;aspect=fixed;fontSize=11;strokeColor=#000000;fillColor=none;" vertex="1" parent="mRPW338xSlPoaJrdeVlL-110">
          <mxGeometry x="18.076923076923077" y="105.19285714285714" width="4.615384615384615" height="4.615384615384615" as="geometry" />
        </mxCell>
        <mxCell id="mRPW338xSlPoaJrdeVlL-123" value="" style="ellipse;whiteSpace=wrap;html=1;aspect=fixed;fontSize=11;strokeColor=#000000;fillColor=none;" vertex="1" parent="mRPW338xSlPoaJrdeVlL-110">
          <mxGeometry x="29.996153846153845" y="105.19285714285714" width="4.615384615384615" height="4.615384615384615" as="geometry" />
        </mxCell>
        <mxCell id="mRPW338xSlPoaJrdeVlL-124" value="" style="endArrow=classic;html=1;rounded=0;fontSize=11;exitX=0.5;exitY=0;exitDx=0;exitDy=0;entryX=0.5;entryY=1;entryDx=0;entryDy=0;" edge="1" parent="mRPW338xSlPoaJrdeVlL-110" source="mRPW338xSlPoaJrdeVlL-122" target="mRPW338xSlPoaJrdeVlL-117">
          <mxGeometry width="50" height="50" relative="1" as="geometry">
            <mxPoint x="-313.07692307692304" y="-169.09285714285713" as="sourcePoint" />
            <mxPoint x="-286.15384615384613" y="-203.3785714285714" as="targetPoint" />
          </mxGeometry>
        </mxCell>
        <mxCell id="mRPW338xSlPoaJrdeVlL-125" value="" style="endArrow=classic;html=1;rounded=0;fontSize=11;exitX=0.5;exitY=0;exitDx=0;exitDy=0;entryX=0.5;entryY=1;entryDx=0;entryDy=0;" edge="1" parent="mRPW338xSlPoaJrdeVlL-110" source="mRPW338xSlPoaJrdeVlL-123" target="mRPW338xSlPoaJrdeVlL-121">
          <mxGeometry width="50" height="50" relative="1" as="geometry">
            <mxPoint x="-282.4084615384616" y="-107.37857142857142" as="sourcePoint" />
            <mxPoint x="-282.4084615384616" y="-124.52142857142854" as="targetPoint" />
          </mxGeometry>
        </mxCell>
        <mxCell id="mRPW338xSlPoaJrdeVlL-126" value="&lt;font style=&quot;font-size: 9px;&quot; face=&quot;Georgia&quot;&gt;&lt;i&gt;Item &lt;sub&gt;s2&lt;/sub&gt;&lt;/i&gt;&lt;/font&gt;" style="text;html=1;strokeColor=none;fillColor=none;align=center;verticalAlign=middle;whiteSpace=wrap;rounded=0;fontSize=11;" vertex="1" parent="mRPW338xSlPoaJrdeVlL-110">
          <mxGeometry x="-5.309999999999999" y="105.19000000000001" width="60" height="20.57" as="geometry" />
        </mxCell>
        <mxCell id="mRPW338xSlPoaJrdeVlL-127" style="edgeStyle=orthogonalEdgeStyle;rounded=0;orthogonalLoop=1;jettySize=auto;html=1;exitX=0.5;exitY=0;exitDx=0;exitDy=0;entryX=1;entryY=0.5;entryDx=0;entryDy=0;fontFamily=Georgia;fontSize=11;" edge="1" parent="1" source="mRPW338xSlPoaJrdeVlL-128" target="mRPW338xSlPoaJrdeVlL-130">
          <mxGeometry relative="1" as="geometry">
            <Array as="points">
              <mxPoint x="606" y="421.65" />
            </Array>
          </mxGeometry>
        </mxCell>
        <mxCell id="mRPW338xSlPoaJrdeVlL-128" value="&lt;font style=&quot;font-size: 10px;&quot;&gt;Activation&lt;br&gt;&lt;/font&gt;" style="rounded=1;whiteSpace=wrap;html=1;fontSize=11;strokeColor=#000000;fillColor=none;" vertex="1" parent="1">
          <mxGeometry x="577.0799999999999" y="431.65" width="57.92" height="10" as="geometry" />
        </mxCell>
        <mxCell id="mRPW338xSlPoaJrdeVlL-129" style="edgeStyle=none;rounded=0;orthogonalLoop=1;jettySize=auto;html=1;exitX=0.5;exitY=0;exitDx=0;exitDy=0;fontFamily=Georgia;fontSize=10;" edge="1" parent="1" source="mRPW338xSlPoaJrdeVlL-113">
          <mxGeometry relative="1" as="geometry">
            <mxPoint x="595" y="441.6500000000001" as="targetPoint" />
          </mxGeometry>
        </mxCell>
        <mxCell id="mRPW338xSlPoaJrdeVlL-130" value="&lt;font style=&quot;font-size: 11px;&quot;&gt;✖️&lt;/font&gt;" style="ellipse;whiteSpace=wrap;html=1;aspect=fixed;fontStyle=0" vertex="1" parent="1">
          <mxGeometry x="560" y="416.65" width="10" height="10" as="geometry" />
        </mxCell>
        <mxCell id="mRPW338xSlPoaJrdeVlL-131" style="edgeStyle=orthogonalEdgeStyle;rounded=0;orthogonalLoop=1;jettySize=auto;html=1;exitX=0;exitY=0.5;exitDx=0;exitDy=0;entryX=0.5;entryY=1;entryDx=0;entryDy=0;fontFamily=Georgia;fontSize=11;" edge="1" parent="1" source="mRPW338xSlPoaJrdeVlL-113" target="mRPW338xSlPoaJrdeVlL-130">
          <mxGeometry relative="1" as="geometry">
            <Array as="points">
              <mxPoint x="565" y="472.65" />
            </Array>
          </mxGeometry>
        </mxCell>
        <mxCell id="mRPW338xSlPoaJrdeVlL-132" value="" style="endArrow=classic;html=1;rounded=0;fontFamily=Georgia;fontSize=11;strokeColor=#FF8000;entryX=0.75;entryY=1;entryDx=0;entryDy=0;" edge="1" parent="1" target="mRPW338xSlPoaJrdeVlL-128">
          <mxGeometry width="50" height="50" relative="1" as="geometry">
            <mxPoint x="621" y="461.6500000000001" as="sourcePoint" />
            <mxPoint x="656" y="451.65" as="targetPoint" />
          </mxGeometry>
        </mxCell>
        <mxCell id="mRPW338xSlPoaJrdeVlL-133" value="" style="group" vertex="1" connectable="0" parent="1">
          <mxGeometry x="816.5" y="345" width="50" height="65" as="geometry" />
        </mxCell>
        <mxCell id="mRPW338xSlPoaJrdeVlL-134" value="" style="shape=curlyBracket;whiteSpace=wrap;html=1;rounded=1;flipH=1;fontSize=22;strokeColor=#000000;fillColor=#000000;rotation=-90;size=0.5;" vertex="1" parent="mRPW338xSlPoaJrdeVlL-133">
          <mxGeometry x="12.5" y="75" width="20" height="50" as="geometry" />
        </mxCell>
        <mxCell id="mRPW338xSlPoaJrdeVlL-135" value="&lt;font style=&quot;font-size: 11px;&quot;&gt;concat&lt;/font&gt;" style="rounded=1;whiteSpace=wrap;html=1;fontSize=11;strokeColor=#000000;fillColor=none;" vertex="1" parent="mRPW338xSlPoaJrdeVlL-133">
          <mxGeometry y="65" width="45" height="20" as="geometry" />
        </mxCell>
        <mxCell id="mRPW338xSlPoaJrdeVlL-136" value="" style="group" vertex="1" connectable="0" parent="mRPW338xSlPoaJrdeVlL-133">
          <mxGeometry x="5" y="42" width="40" height="10" as="geometry" />
        </mxCell>
        <mxCell id="mRPW338xSlPoaJrdeVlL-137" value="" style="rounded=0;whiteSpace=wrap;html=1;fontSize=22;strokeColor=none;fillColor=#CDA2BE;" vertex="1" parent="mRPW338xSlPoaJrdeVlL-136">
          <mxGeometry width="10" height="10" as="geometry" />
        </mxCell>
        <mxCell id="mRPW338xSlPoaJrdeVlL-138" style="edgeStyle=none;rounded=0;orthogonalLoop=1;jettySize=auto;html=1;exitX=1;exitY=1;exitDx=0;exitDy=0;fontSize=22;strokeColor=none;" edge="1" parent="mRPW338xSlPoaJrdeVlL-136" source="mRPW338xSlPoaJrdeVlL-137" target="mRPW338xSlPoaJrdeVlL-137">
          <mxGeometry relative="1" as="geometry" />
        </mxCell>
        <mxCell id="mRPW338xSlPoaJrdeVlL-139" value="" style="rounded=0;whiteSpace=wrap;html=1;fontSize=22;strokeColor=none;fillColor=#FFCE9F;" vertex="1" parent="mRPW338xSlPoaJrdeVlL-136">
          <mxGeometry x="10" width="10" height="10" as="geometry" />
        </mxCell>
        <mxCell id="mRPW338xSlPoaJrdeVlL-140" value="" style="rounded=0;whiteSpace=wrap;html=1;fontSize=22;strokeColor=none;fillColor=#CDA2BE;" vertex="1" parent="mRPW338xSlPoaJrdeVlL-136">
          <mxGeometry x="20" width="10" height="10" as="geometry" />
        </mxCell>
        <mxCell id="mRPW338xSlPoaJrdeVlL-141" value="" style="rounded=0;whiteSpace=wrap;html=1;fontSize=22;strokeColor=none;fillColor=#FFCE9F;" vertex="1" parent="mRPW338xSlPoaJrdeVlL-136">
          <mxGeometry x="30" width="10" height="10" as="geometry" />
        </mxCell>
        <mxCell id="mRPW338xSlPoaJrdeVlL-142" value="" style="rounded=0;whiteSpace=wrap;html=1;fontSize=22;strokeColor=none;fillColor=#CDA2BE;" vertex="1" parent="1">
          <mxGeometry x="824" y="455" width="10" height="10" as="geometry" />
        </mxCell>
        <mxCell id="mRPW338xSlPoaJrdeVlL-143" value="" style="rounded=0;whiteSpace=wrap;html=1;fontSize=22;strokeColor=none;fillColor=#E6D0DE;" vertex="1" parent="1">
          <mxGeometry x="824" y="465" width="10" height="10" as="geometry" />
        </mxCell>
        <mxCell id="mRPW338xSlPoaJrdeVlL-144" value="" style="rounded=0;whiteSpace=wrap;html=1;fontSize=22;strokeColor=none;fillColor=#CDA2BE;" vertex="1" parent="1">
          <mxGeometry x="824" y="475" width="10" height="10" as="geometry" />
        </mxCell>
        <mxCell id="mRPW338xSlPoaJrdeVlL-145" value="" style="rounded=0;whiteSpace=wrap;html=1;fontSize=22;strokeColor=none;fillColor=#E6D0DE;" vertex="1" parent="1">
          <mxGeometry x="824" y="485" width="10" height="10" as="geometry" />
        </mxCell>
        <mxCell id="mRPW338xSlPoaJrdeVlL-146" value="" style="rounded=0;whiteSpace=wrap;html=1;fontSize=22;strokeColor=none;fillColor=#FFB570;" vertex="1" parent="1">
          <mxGeometry x="844" y="455" width="10" height="10" as="geometry" />
        </mxCell>
        <mxCell id="mRPW338xSlPoaJrdeVlL-147" value="" style="rounded=0;whiteSpace=wrap;html=1;fontSize=22;strokeColor=none;fillColor=#FFCE9F;" vertex="1" parent="1">
          <mxGeometry x="844" y="465" width="10" height="10" as="geometry" />
        </mxCell>
        <mxCell id="mRPW338xSlPoaJrdeVlL-148" value="" style="rounded=0;whiteSpace=wrap;html=1;fontSize=22;strokeColor=none;fillColor=#FFB570;" vertex="1" parent="1">
          <mxGeometry x="844" y="475" width="10" height="15" as="geometry" />
        </mxCell>
        <mxCell id="mRPW338xSlPoaJrdeVlL-149" value="" style="rounded=0;whiteSpace=wrap;html=1;fontSize=22;strokeColor=none;fillColor=#FFCE9F;" vertex="1" parent="1">
          <mxGeometry x="844" y="485" width="10" height="10" as="geometry" />
        </mxCell>
        <mxCell id="mRPW338xSlPoaJrdeVlL-150" value="" style="ellipse;whiteSpace=wrap;html=1;aspect=fixed;fontSize=11;strokeColor=#000000;fillColor=none;" vertex="1" parent="1">
          <mxGeometry x="824" y="520" width="10" height="10" as="geometry" />
        </mxCell>
        <mxCell id="mRPW338xSlPoaJrdeVlL-151" value="" style="ellipse;whiteSpace=wrap;html=1;aspect=fixed;fontSize=11;strokeColor=#000000;fillColor=none;" vertex="1" parent="1">
          <mxGeometry x="844" y="520" width="10" height="10" as="geometry" />
        </mxCell>
        <mxCell id="mRPW338xSlPoaJrdeVlL-152" value="" style="endArrow=classic;html=1;rounded=0;fontSize=11;exitX=0.5;exitY=0;exitDx=0;exitDy=0;entryX=0.5;entryY=1;entryDx=0;entryDy=0;" edge="1" parent="1" source="mRPW338xSlPoaJrdeVlL-150" target="mRPW338xSlPoaJrdeVlL-145">
          <mxGeometry width="50" height="50" relative="1" as="geometry">
            <mxPoint x="794" y="430" as="sourcePoint" />
            <mxPoint x="844" y="380" as="targetPoint" />
          </mxGeometry>
        </mxCell>
        <mxCell id="mRPW338xSlPoaJrdeVlL-153" value="" style="endArrow=classic;html=1;rounded=0;fontSize=11;exitX=0.5;exitY=0;exitDx=0;exitDy=0;entryX=0.5;entryY=1;entryDx=0;entryDy=0;" edge="1" parent="1" source="mRPW338xSlPoaJrdeVlL-151" target="mRPW338xSlPoaJrdeVlL-149">
          <mxGeometry width="50" height="50" relative="1" as="geometry">
            <mxPoint x="848.8199999999999" y="520" as="sourcePoint" />
            <mxPoint x="848.8199999999999" y="495" as="targetPoint" />
          </mxGeometry>
        </mxCell>
        <mxCell id="mRPW338xSlPoaJrdeVlL-154" value="Item&lt;br&gt;Features" style="text;html=1;strokeColor=none;fillColor=none;align=center;verticalAlign=middle;whiteSpace=wrap;rounded=0;fontSize=11;" vertex="1" parent="1">
          <mxGeometry x="809" y="535" width="65" height="30" as="geometry" />
        </mxCell>
        <mxCell id="mRPW338xSlPoaJrdeVlL-155" value="" style="endArrow=classic;html=1;rounded=0;fontFamily=Georgia;fontSize=11;strokeColor=#000000;exitX=0;exitY=0;exitDx=0;exitDy=0;" edge="1" parent="1" source="mRPW338xSlPoaJrdeVlL-140">
          <mxGeometry width="50" height="50" relative="1" as="geometry">
            <mxPoint x="842" y="390" as="sourcePoint" />
            <mxPoint x="842" y="320" as="targetPoint" />
          </mxGeometry>
        </mxCell>
        <mxCell id="mRPW338xSlPoaJrdeVlL-156" value="" style="endArrow=classic;html=1;rounded=0;fontFamily=Georgia;fontSize=11;strokeColor=#000000;exitX=0.5;exitY=0;exitDx=0;exitDy=0;entryX=0.547;entryY=0.143;entryDx=0;entryDy=0;entryPerimeter=0;" edge="1" parent="1" source="mRPW338xSlPoaJrdeVlL-108">
          <mxGeometry width="50" height="50" relative="1" as="geometry">
            <mxPoint x="446" y="461.65" as="sourcePoint" />
            <mxPoint x="485.74" y="402.59000000000015" as="targetPoint" />
          </mxGeometry>
        </mxCell>
        <mxCell id="mRPW338xSlPoaJrdeVlL-157" value="" style="endArrow=classic;html=1;rounded=0;fontFamily=Georgia;fontSize=11;strokeColor=#000000;exitX=0.5;exitY=0;exitDx=0;exitDy=0;entryX=0.547;entryY=0.143;entryDx=0;entryDy=0;entryPerimeter=0;" edge="1" parent="1">
          <mxGeometry width="50" height="50" relative="1" as="geometry">
            <mxPoint x="565.1199999999999" y="416.6500000000001" as="sourcePoint" />
            <mxPoint x="564.8600000000001" y="402.5899999999999" as="targetPoint" />
          </mxGeometry>
        </mxCell>
        <mxCell id="mRPW338xSlPoaJrdeVlL-158" value="" style="group" vertex="1" connectable="0" parent="1">
          <mxGeometry x="724" y="430" width="80" height="120" as="geometry" />
        </mxCell>
        <mxCell id="mRPW338xSlPoaJrdeVlL-159" value="" style="group" vertex="1" connectable="0" parent="mRPW338xSlPoaJrdeVlL-158">
          <mxGeometry x="-30.307692307692307" y="1.65" width="40" height="44.57142857142857" as="geometry" />
        </mxCell>
        <mxCell id="mRPW338xSlPoaJrdeVlL-160" value="" style="shape=curlyBracket;whiteSpace=wrap;html=1;rounded=1;flipH=1;fontSize=22;strokeColor=#000000;fillColor=#000000;rotation=-90;size=0.5;" vertex="1" parent="mRPW338xSlPoaJrdeVlL-159">
          <mxGeometry x="18.076923076923077" y="36.62142857142857" width="10.769230769230768" height="34.285714285714285" as="geometry" />
        </mxCell>
        <mxCell id="mRPW338xSlPoaJrdeVlL-161" value="&lt;font style=&quot;font-size: 11px;&quot;&gt;concat&lt;/font&gt;" style="rounded=1;whiteSpace=wrap;html=1;fontSize=11;strokeColor=#000000;fillColor=none;" vertex="1" parent="mRPW338xSlPoaJrdeVlL-159">
          <mxGeometry x="4.14" y="36.05" width="38.65" height="10.43" as="geometry" />
        </mxCell>
        <mxCell id="mRPW338xSlPoaJrdeVlL-162" value="" style="rounded=0;whiteSpace=wrap;html=1;fontSize=22;strokeColor=none;fillColor=#CDA2BE;" vertex="1" parent="mRPW338xSlPoaJrdeVlL-158">
          <mxGeometry x="-14.92307692307692" y="62.271428571428565" width="5.384615384615384" height="6.857142857142857" as="geometry" />
        </mxCell>
        <mxCell id="mRPW338xSlPoaJrdeVlL-163" value="" style="rounded=0;whiteSpace=wrap;html=1;fontSize=22;strokeColor=none;fillColor=#E6D0DE;" vertex="1" parent="mRPW338xSlPoaJrdeVlL-158">
          <mxGeometry x="-14.92307692307692" y="69.12857142857143" width="5.384615384615384" height="6.857142857142857" as="geometry" />
        </mxCell>
        <mxCell id="mRPW338xSlPoaJrdeVlL-164" value="" style="rounded=0;whiteSpace=wrap;html=1;fontSize=22;strokeColor=none;fillColor=#CDA2BE;" vertex="1" parent="mRPW338xSlPoaJrdeVlL-158">
          <mxGeometry x="-14.92307692307692" y="75.9857142857143" width="5.384615384615384" height="6.857142857142857" as="geometry" />
        </mxCell>
        <mxCell id="mRPW338xSlPoaJrdeVlL-165" value="" style="rounded=0;whiteSpace=wrap;html=1;fontSize=22;strokeColor=none;fillColor=#E6D0DE;" vertex="1" parent="mRPW338xSlPoaJrdeVlL-158">
          <mxGeometry x="-14.92307692307692" y="82.84285714285714" width="5.384615384615384" height="6.857142857142857" as="geometry" />
        </mxCell>
        <mxCell id="mRPW338xSlPoaJrdeVlL-166" value="" style="rounded=0;whiteSpace=wrap;html=1;fontSize=22;strokeColor=none;fillColor=#FFB570;" vertex="1" parent="mRPW338xSlPoaJrdeVlL-158">
          <mxGeometry x="-3.0038461538461547" y="62.271428571428565" width="5.384615384615384" height="6.857142857142857" as="geometry" />
        </mxCell>
        <mxCell id="mRPW338xSlPoaJrdeVlL-167" value="" style="rounded=0;whiteSpace=wrap;html=1;fontSize=22;strokeColor=none;fillColor=#FFCE9F;" vertex="1" parent="mRPW338xSlPoaJrdeVlL-158">
          <mxGeometry x="-3.0038461538461547" y="69.12857142857143" width="5.384615384615384" height="6.857142857142857" as="geometry" />
        </mxCell>
        <mxCell id="mRPW338xSlPoaJrdeVlL-168" value="" style="rounded=0;whiteSpace=wrap;html=1;fontSize=22;strokeColor=none;fillColor=#FFB570;" vertex="1" parent="mRPW338xSlPoaJrdeVlL-158">
          <mxGeometry x="-3.0038461538461547" y="75.9857142857143" width="5.384615384615384" height="10.285714285714285" as="geometry" />
        </mxCell>
        <mxCell id="mRPW338xSlPoaJrdeVlL-169" value="" style="rounded=0;whiteSpace=wrap;html=1;fontSize=22;strokeColor=none;fillColor=#FFCE9F;" vertex="1" parent="mRPW338xSlPoaJrdeVlL-158">
          <mxGeometry x="-3.0038461538461547" y="82.84285714285714" width="5.384615384615384" height="6.857142857142857" as="geometry" />
        </mxCell>
        <mxCell id="mRPW338xSlPoaJrdeVlL-170" value="" style="ellipse;whiteSpace=wrap;html=1;aspect=fixed;fontSize=11;strokeColor=#000000;fillColor=none;" vertex="1" parent="mRPW338xSlPoaJrdeVlL-158">
          <mxGeometry x="-14.92307692307692" y="106.84285714285714" width="4.615384615384615" height="4.615384615384615" as="geometry" />
        </mxCell>
        <mxCell id="mRPW338xSlPoaJrdeVlL-171" value="" style="ellipse;whiteSpace=wrap;html=1;aspect=fixed;fontSize=11;strokeColor=#000000;fillColor=none;" vertex="1" parent="mRPW338xSlPoaJrdeVlL-158">
          <mxGeometry x="-3.0038461538461547" y="106.84285714285714" width="4.615384615384615" height="4.615384615384615" as="geometry" />
        </mxCell>
        <mxCell id="mRPW338xSlPoaJrdeVlL-172" value="" style="endArrow=classic;html=1;rounded=0;fontSize=11;exitX=0.5;exitY=0;exitDx=0;exitDy=0;entryX=0.5;entryY=1;entryDx=0;entryDy=0;" edge="1" parent="mRPW338xSlPoaJrdeVlL-158" source="mRPW338xSlPoaJrdeVlL-170" target="mRPW338xSlPoaJrdeVlL-165">
          <mxGeometry width="50" height="50" relative="1" as="geometry">
            <mxPoint x="-346.07692307692304" y="-167.44285714285712" as="sourcePoint" />
            <mxPoint x="-319.15384615384613" y="-201.7285714285714" as="targetPoint" />
          </mxGeometry>
        </mxCell>
        <mxCell id="mRPW338xSlPoaJrdeVlL-173" value="" style="endArrow=classic;html=1;rounded=0;fontSize=11;exitX=0.5;exitY=0;exitDx=0;exitDy=0;entryX=0.5;entryY=1;entryDx=0;entryDy=0;" edge="1" parent="mRPW338xSlPoaJrdeVlL-158" source="mRPW338xSlPoaJrdeVlL-171" target="mRPW338xSlPoaJrdeVlL-169">
          <mxGeometry width="50" height="50" relative="1" as="geometry">
            <mxPoint x="-315.4084615384616" y="-105.72857142857141" as="sourcePoint" />
            <mxPoint x="-315.4084615384616" y="-122.87142857142854" as="targetPoint" />
          </mxGeometry>
        </mxCell>
        <mxCell id="mRPW338xSlPoaJrdeVlL-174" value="&lt;font style=&quot;font-size: 9px;&quot; face=&quot;Georgia&quot;&gt;&lt;i&gt;Item &lt;sub&gt;sN&lt;/sub&gt;&lt;/i&gt;&lt;/font&gt;" style="text;html=1;strokeColor=none;fillColor=none;align=center;verticalAlign=middle;whiteSpace=wrap;rounded=0;fontSize=11;" vertex="1" parent="mRPW338xSlPoaJrdeVlL-158">
          <mxGeometry x="-38.31" y="106.84000000000002" width="60" height="20.57" as="geometry" />
        </mxCell>
        <mxCell id="mRPW338xSlPoaJrdeVlL-175" style="edgeStyle=orthogonalEdgeStyle;rounded=0;orthogonalLoop=1;jettySize=auto;html=1;exitX=0.5;exitY=0;exitDx=0;exitDy=0;entryX=1;entryY=0.5;entryDx=0;entryDy=0;fontFamily=Georgia;fontSize=11;" edge="1" parent="1" source="mRPW338xSlPoaJrdeVlL-176" target="mRPW338xSlPoaJrdeVlL-178">
          <mxGeometry relative="1" as="geometry">
            <Array as="points">
              <mxPoint x="728" y="421.65" />
            </Array>
          </mxGeometry>
        </mxCell>
        <mxCell id="mRPW338xSlPoaJrdeVlL-176" value="&lt;font style=&quot;font-size: 10px;&quot;&gt;Activation&lt;br&gt;&lt;/font&gt;" style="rounded=1;whiteSpace=wrap;html=1;fontSize=11;strokeColor=#000000;fillColor=none;" vertex="1" parent="1">
          <mxGeometry x="699.0799999999999" y="431.65" width="57.92" height="10" as="geometry" />
        </mxCell>
        <mxCell id="mRPW338xSlPoaJrdeVlL-177" style="edgeStyle=none;rounded=0;orthogonalLoop=1;jettySize=auto;html=1;exitX=0.5;exitY=0;exitDx=0;exitDy=0;fontFamily=Georgia;fontSize=10;" edge="1" parent="1" source="mRPW338xSlPoaJrdeVlL-161">
          <mxGeometry relative="1" as="geometry">
            <mxPoint x="717" y="441.6500000000001" as="targetPoint" />
          </mxGeometry>
        </mxCell>
        <mxCell id="mRPW338xSlPoaJrdeVlL-178" value="&lt;font style=&quot;font-size: 11px;&quot;&gt;✖️&lt;/font&gt;" style="ellipse;whiteSpace=wrap;html=1;aspect=fixed;fontStyle=0" vertex="1" parent="1">
          <mxGeometry x="682" y="416.65" width="10" height="10" as="geometry" />
        </mxCell>
        <mxCell id="mRPW338xSlPoaJrdeVlL-179" style="edgeStyle=orthogonalEdgeStyle;rounded=0;orthogonalLoop=1;jettySize=auto;html=1;exitX=0;exitY=0.5;exitDx=0;exitDy=0;entryX=0.5;entryY=1;entryDx=0;entryDy=0;fontFamily=Georgia;fontSize=11;" edge="1" parent="1" source="mRPW338xSlPoaJrdeVlL-161" target="mRPW338xSlPoaJrdeVlL-178">
          <mxGeometry relative="1" as="geometry">
            <Array as="points">
              <mxPoint x="687" y="472.65" />
            </Array>
          </mxGeometry>
        </mxCell>
        <mxCell id="mRPW338xSlPoaJrdeVlL-180" value="" style="endArrow=classic;html=1;rounded=0;fontFamily=Georgia;fontSize=11;strokeColor=#FF8000;entryX=0.75;entryY=1;entryDx=0;entryDy=0;" edge="1" parent="1" target="mRPW338xSlPoaJrdeVlL-176">
          <mxGeometry width="50" height="50" relative="1" as="geometry">
            <mxPoint x="743" y="461.6500000000001" as="sourcePoint" />
            <mxPoint x="778" y="451.65" as="targetPoint" />
          </mxGeometry>
        </mxCell>
        <mxCell id="mRPW338xSlPoaJrdeVlL-181" value="" style="endArrow=classic;html=1;rounded=0;fontFamily=Georgia;fontSize=11;strokeColor=#000000;exitX=0.5;exitY=0;exitDx=0;exitDy=0;entryX=0.547;entryY=0.143;entryDx=0;entryDy=0;entryPerimeter=0;" edge="1" parent="1">
          <mxGeometry width="50" height="50" relative="1" as="geometry">
            <mxPoint x="687.1199999999999" y="416.6500000000001" as="sourcePoint" />
            <mxPoint x="686.8600000000001" y="402.5899999999999" as="targetPoint" />
          </mxGeometry>
        </mxCell>
        <mxCell id="mRPW338xSlPoaJrdeVlL-182" value="" style="rounded=0;whiteSpace=wrap;html=1;fontFamily=Georgia;fontSize=22;strokeColor=#FF8000;fillColor=none;dashed=1;" vertex="1" parent="1">
          <mxGeometry x="450" y="330" width="432" height="260" as="geometry" />
        </mxCell>
        <mxCell id="mRPW338xSlPoaJrdeVlL-183" value="&lt;font style=&quot;font-size: 22px;&quot;&gt;……&lt;/font&gt;" style="text;html=1;strokeColor=none;fillColor=none;align=center;verticalAlign=middle;whiteSpace=wrap;rounded=0;fontFamily=Georgia;fontSize=11;" vertex="1" parent="1">
          <mxGeometry x="622" y="490" width="60" height="30" as="geometry" />
        </mxCell>
        <mxCell id="mRPW338xSlPoaJrdeVlL-184" value="&lt;font color=&quot;#ff8000&quot; face=&quot;Helvetica&quot; style=&quot;font-size: 12px;&quot;&gt;用户店铺行为序列模块&lt;/font&gt;" style="text;html=1;strokeColor=none;fillColor=none;align=center;verticalAlign=middle;whiteSpace=wrap;rounded=0;dashed=1;fontFamily=Georgia;fontSize=22;" vertex="1" parent="1">
          <mxGeometry x="538" y="560" width="256" height="30" as="geometry" />
        </mxCell>
        <mxCell id="mRPW338xSlPoaJrdeVlL-262" style="edgeStyle=orthogonalEdgeStyle;rounded=0;orthogonalLoop=1;jettySize=auto;html=1;entryX=0.5;entryY=1;entryDx=0;entryDy=0;" edge="1" parent="1" target="mRPW338xSlPoaJrdeVlL-266">
          <mxGeometry relative="1" as="geometry">
            <mxPoint x="730" y="300" as="sourcePoint" />
          </mxGeometry>
        </mxCell>
        <mxCell id="mRPW338xSlPoaJrdeVlL-263" style="edgeStyle=orthogonalEdgeStyle;rounded=0;orthogonalLoop=1;jettySize=auto;html=1;entryX=0.5;entryY=1;entryDx=0;entryDy=0;" edge="1" parent="1" target="mRPW338xSlPoaJrdeVlL-265">
          <mxGeometry relative="1" as="geometry">
            <mxPoint x="480" y="300" as="sourcePoint" />
            <Array as="points">
              <mxPoint x="480" y="300" />
            </Array>
          </mxGeometry>
        </mxCell>
        <mxCell id="mRPW338xSlPoaJrdeVlL-264" style="edgeStyle=orthogonalEdgeStyle;rounded=0;orthogonalLoop=1;jettySize=auto;html=1;entryX=0.5;entryY=1;entryDx=0;entryDy=0;" edge="1" parent="1" target="mRPW338xSlPoaJrdeVlL-276">
          <mxGeometry relative="1" as="geometry">
            <mxPoint x="609" y="300" as="sourcePoint" />
            <Array as="points">
              <mxPoint x="609" y="300" />
              <mxPoint x="609" y="280" />
            </Array>
          </mxGeometry>
        </mxCell>
        <mxCell id="mRPW338xSlPoaJrdeVlL-265" value="CTR_tower" style="rounded=0;whiteSpace=wrap;html=1;fillColor=#ffe6cc;strokeColor=#d79b00;" vertex="1" parent="1">
          <mxGeometry x="435" y="220" width="90" height="40" as="geometry" />
        </mxCell>
        <mxCell id="mRPW338xSlPoaJrdeVlL-266" value="CVR_tower" style="rounded=0;whiteSpace=wrap;html=1;fillColor=#fff2cc;strokeColor=#d6b656;" vertex="1" parent="1">
          <mxGeometry x="685" y="220" width="90" height="40" as="geometry" />
        </mxCell>
        <mxCell id="mRPW338xSlPoaJrdeVlL-267" value="sigmoid" style="rounded=0;whiteSpace=wrap;html=1;fillColor=#ffe6cc;strokeColor=#d79b00;" vertex="1" parent="1">
          <mxGeometry x="435" y="150" width="90" height="30" as="geometry" />
        </mxCell>
        <mxCell id="mRPW338xSlPoaJrdeVlL-268" style="edgeStyle=orthogonalEdgeStyle;rounded=0;orthogonalLoop=1;jettySize=auto;html=1;exitX=0.5;exitY=0;exitDx=0;exitDy=0;entryX=0.5;entryY=1;entryDx=0;entryDy=0;" edge="1" parent="1" source="mRPW338xSlPoaJrdeVlL-265" target="mRPW338xSlPoaJrdeVlL-267">
          <mxGeometry relative="1" as="geometry" />
        </mxCell>
        <mxCell id="mRPW338xSlPoaJrdeVlL-269" value="sigmoid" style="rounded=0;whiteSpace=wrap;html=1;fillColor=#fff2cc;strokeColor=#d6b656;" vertex="1" parent="1">
          <mxGeometry x="685" y="150" width="90" height="30" as="geometry" />
        </mxCell>
        <mxCell id="mRPW338xSlPoaJrdeVlL-270" style="edgeStyle=orthogonalEdgeStyle;rounded=0;orthogonalLoop=1;jettySize=auto;html=1;exitX=0.5;exitY=0;exitDx=0;exitDy=0;entryX=0.5;entryY=1;entryDx=0;entryDy=0;" edge="1" parent="1" source="mRPW338xSlPoaJrdeVlL-266" target="mRPW338xSlPoaJrdeVlL-269">
          <mxGeometry relative="1" as="geometry" />
        </mxCell>
        <mxCell id="mRPW338xSlPoaJrdeVlL-271" style="edgeStyle=none;rounded=0;orthogonalLoop=1;jettySize=auto;html=1;exitX=0.5;exitY=0;exitDx=0;exitDy=0;fontSize=21;" edge="1" parent="1" source="mRPW338xSlPoaJrdeVlL-272">
          <mxGeometry relative="1" as="geometry">
            <mxPoint x="480.0769230769231" y="80" as="targetPoint" />
          </mxGeometry>
        </mxCell>
        <mxCell id="mRPW338xSlPoaJrdeVlL-272" value="" style="ellipse;whiteSpace=wrap;html=1;aspect=fixed;" vertex="1" parent="1">
          <mxGeometry x="470" y="100" width="20" height="20" as="geometry" />
        </mxCell>
        <mxCell id="mRPW338xSlPoaJrdeVlL-273" style="edgeStyle=orthogonalEdgeStyle;rounded=0;orthogonalLoop=1;jettySize=auto;html=1;exitX=0.5;exitY=0;exitDx=0;exitDy=0;entryX=0.5;entryY=1;entryDx=0;entryDy=0;" edge="1" parent="1" source="mRPW338xSlPoaJrdeVlL-267" target="mRPW338xSlPoaJrdeVlL-272">
          <mxGeometry relative="1" as="geometry" />
        </mxCell>
        <mxCell id="mRPW338xSlPoaJrdeVlL-274" style="edgeStyle=orthogonalEdgeStyle;rounded=0;orthogonalLoop=1;jettySize=auto;html=1;exitX=0.5;exitY=0;exitDx=0;exitDy=0;entryX=1;entryY=0.5;entryDx=0;entryDy=0;" edge="1" parent="1" source="mRPW338xSlPoaJrdeVlL-276" target="mRPW338xSlPoaJrdeVlL-267">
          <mxGeometry relative="1" as="geometry" />
        </mxCell>
        <mxCell id="mRPW338xSlPoaJrdeVlL-275" style="edgeStyle=orthogonalEdgeStyle;rounded=0;orthogonalLoop=1;jettySize=auto;html=1;exitX=0.5;exitY=0;exitDx=0;exitDy=0;entryX=0;entryY=0.5;entryDx=0;entryDy=0;" edge="1" parent="1" source="mRPW338xSlPoaJrdeVlL-276" target="mRPW338xSlPoaJrdeVlL-269">
          <mxGeometry relative="1" as="geometry" />
        </mxCell>
        <mxCell id="mRPW338xSlPoaJrdeVlL-276" value="Bias_tower" style="rounded=0;whiteSpace=wrap;html=1;fillColor=#f5f5f5;fontColor=#333333;strokeColor=#666666;" vertex="1" parent="1">
          <mxGeometry x="568.5" y="220" width="80" height="40" as="geometry" />
        </mxCell>
        <mxCell id="mRPW338xSlPoaJrdeVlL-277" style="edgeStyle=none;rounded=0;orthogonalLoop=1;jettySize=auto;html=1;exitX=0.5;exitY=0;exitDx=0;exitDy=0;fontSize=21;" edge="1" parent="1" source="mRPW338xSlPoaJrdeVlL-278">
          <mxGeometry relative="1" as="geometry">
            <mxPoint x="730.0769230769229" y="80" as="targetPoint" />
          </mxGeometry>
        </mxCell>
        <mxCell id="mRPW338xSlPoaJrdeVlL-278" value="" style="ellipse;whiteSpace=wrap;html=1;aspect=fixed;" vertex="1" parent="1">
          <mxGeometry x="720" y="100" width="20" height="20" as="geometry" />
        </mxCell>
        <mxCell id="mRPW338xSlPoaJrdeVlL-279" style="edgeStyle=orthogonalEdgeStyle;rounded=0;orthogonalLoop=1;jettySize=auto;html=1;exitX=0.5;exitY=0;exitDx=0;exitDy=0;entryX=0.5;entryY=1;entryDx=0;entryDy=0;" edge="1" parent="1" source="mRPW338xSlPoaJrdeVlL-269" target="mRPW338xSlPoaJrdeVlL-278">
          <mxGeometry relative="1" as="geometry" />
        </mxCell>
        <mxCell id="mRPW338xSlPoaJrdeVlL-280" style="edgeStyle=none;rounded=0;orthogonalLoop=1;jettySize=auto;html=1;exitX=0.5;exitY=0;exitDx=0;exitDy=0;fontSize=21;" edge="1" parent="1" source="mRPW338xSlPoaJrdeVlL-281">
          <mxGeometry relative="1" as="geometry">
            <mxPoint x="609" y="30" as="targetPoint" />
          </mxGeometry>
        </mxCell>
        <mxCell id="mRPW338xSlPoaJrdeVlL-281" value="&lt;font style=&quot;font-size: 22px;&quot;&gt;✖️&lt;/font&gt;" style="ellipse;whiteSpace=wrap;html=1;aspect=fixed;fontStyle=0" vertex="1" parent="1">
          <mxGeometry x="598.5" y="70" width="20" height="20" as="geometry" />
        </mxCell>
        <mxCell id="mRPW338xSlPoaJrdeVlL-282" style="rounded=0;orthogonalLoop=1;jettySize=auto;html=1;exitX=1;exitY=0;exitDx=0;exitDy=0;entryX=0;entryY=0.5;entryDx=0;entryDy=0;fontSize=21;" edge="1" parent="1" source="mRPW338xSlPoaJrdeVlL-272" target="mRPW338xSlPoaJrdeVlL-281">
          <mxGeometry relative="1" as="geometry" />
        </mxCell>
        <mxCell id="mRPW338xSlPoaJrdeVlL-283" style="edgeStyle=none;rounded=0;orthogonalLoop=1;jettySize=auto;html=1;exitX=0;exitY=0;exitDx=0;exitDy=0;entryX=1;entryY=0.5;entryDx=0;entryDy=0;fontSize=21;" edge="1" parent="1" source="mRPW338xSlPoaJrdeVlL-278" target="mRPW338xSlPoaJrdeVlL-281">
          <mxGeometry relative="1" as="geometry" />
        </mxCell>
        <mxCell id="mRPW338xSlPoaJrdeVlL-284" value="&lt;font style=&quot;font-size: 12px;&quot;&gt;pCTR&lt;/font&gt;" style="text;html=1;strokeColor=none;fillColor=none;align=center;verticalAlign=middle;whiteSpace=wrap;rounded=0;fontSize=21;" vertex="1" parent="1">
          <mxGeometry x="410" y="90" width="60" height="30" as="geometry" />
        </mxCell>
        <mxCell id="mRPW338xSlPoaJrdeVlL-285" value="&lt;font style=&quot;font-size: 12px;&quot;&gt;pCVR&lt;/font&gt;" style="text;html=1;strokeColor=none;fillColor=none;align=center;verticalAlign=middle;whiteSpace=wrap;rounded=0;fontSize=21;" vertex="1" parent="1">
          <mxGeometry x="740" y="90" width="60" height="30" as="geometry" />
        </mxCell>
        <mxCell id="mRPW338xSlPoaJrdeVlL-288" style="edgeStyle=orthogonalEdgeStyle;rounded=0;orthogonalLoop=1;jettySize=auto;html=1;exitX=0.5;exitY=0;exitDx=0;exitDy=0;" edge="1" parent="1" source="mRPW338xSlPoaJrdeVlL-289">
          <mxGeometry relative="1" as="geometry">
            <mxPoint x="369.49999999999955" y="365.00000000000006" as="targetPoint" />
          </mxGeometry>
        </mxCell>
        <mxCell id="mRPW338xSlPoaJrdeVlL-289" value="点击短序列&lt;br&gt;Target&lt;br&gt;Attention" style="rounded=0;whiteSpace=wrap;html=1;strokeColor=#000000;fillColor=none;strokeWidth=1;fillStyle=dots;gradientColor=default;" vertex="1" parent="1">
          <mxGeometry x="330" y="394.99999999999994" width="80" height="170" as="geometry" />
        </mxCell>
        <mxCell id="mRPW338xSlPoaJrdeVlL-290" style="edgeStyle=orthogonalEdgeStyle;rounded=0;orthogonalLoop=1;jettySize=auto;html=1;exitX=0.5;exitY=0;exitDx=0;exitDy=0;" edge="1" parent="1" source="mRPW338xSlPoaJrdeVlL-291">
          <mxGeometry relative="1" as="geometry">
            <mxPoint x="259.49999999999955" y="365.00000000000006" as="targetPoint" />
          </mxGeometry>
        </mxCell>
        <mxCell id="mRPW338xSlPoaJrdeVlL-291" value="点击长序列&lt;br&gt;Mean Pooling" style="rounded=0;whiteSpace=wrap;html=1;strokeColor=#000000;fillColor=none;" vertex="1" parent="1">
          <mxGeometry x="220" y="394.99999999999994" width="80" height="170" as="geometry" />
        </mxCell>
        <mxCell id="mRPW338xSlPoaJrdeVlL-292" value="" style="group" vertex="1" connectable="0" parent="1">
          <mxGeometry x="330" y="355" width="80" height="10" as="geometry" />
        </mxCell>
        <mxCell id="mRPW338xSlPoaJrdeVlL-293" value="" style="group;fillColor=#fff2cc;strokeColor=#d6b656;" vertex="1" connectable="0" parent="mRPW338xSlPoaJrdeVlL-292">
          <mxGeometry width="40" height="10" as="geometry" />
        </mxCell>
        <mxCell id="mRPW338xSlPoaJrdeVlL-294" value="" style="rounded=0;whiteSpace=wrap;html=1;fontSize=22;strokeColor=#82b366;fillColor=#d5e8d4;" vertex="1" parent="mRPW338xSlPoaJrdeVlL-293">
          <mxGeometry width="10" height="10" as="geometry" />
        </mxCell>
        <mxCell id="mRPW338xSlPoaJrdeVlL-295" style="edgeStyle=none;rounded=0;orthogonalLoop=1;jettySize=auto;html=1;exitX=1;exitY=1;exitDx=0;exitDy=0;fontSize=22;strokeColor=none;" edge="1" parent="mRPW338xSlPoaJrdeVlL-293" source="mRPW338xSlPoaJrdeVlL-294" target="mRPW338xSlPoaJrdeVlL-294">
          <mxGeometry relative="1" as="geometry" />
        </mxCell>
        <mxCell id="mRPW338xSlPoaJrdeVlL-296" value="" style="rounded=0;whiteSpace=wrap;html=1;fontSize=22;strokeColor=#d6b656;fillColor=#fff2cc;" vertex="1" parent="mRPW338xSlPoaJrdeVlL-293">
          <mxGeometry x="10" width="10" height="10" as="geometry" />
        </mxCell>
        <mxCell id="mRPW338xSlPoaJrdeVlL-297" value="" style="rounded=0;whiteSpace=wrap;html=1;fontSize=22;strokeColor=#82b366;fillColor=#d5e8d4;" vertex="1" parent="mRPW338xSlPoaJrdeVlL-293">
          <mxGeometry x="20" width="10" height="10" as="geometry" />
        </mxCell>
        <mxCell id="mRPW338xSlPoaJrdeVlL-298" value="" style="rounded=0;whiteSpace=wrap;html=1;fontSize=22;strokeColor=#d6b656;fillColor=#fff2cc;" vertex="1" parent="mRPW338xSlPoaJrdeVlL-293">
          <mxGeometry x="30" width="10" height="10" as="geometry" />
        </mxCell>
        <mxCell id="mRPW338xSlPoaJrdeVlL-299" value="" style="group;fillColor=#dae8fc;strokeColor=#6c8ebf;" vertex="1" connectable="0" parent="mRPW338xSlPoaJrdeVlL-292">
          <mxGeometry x="40" width="40" height="10" as="geometry" />
        </mxCell>
        <mxCell id="mRPW338xSlPoaJrdeVlL-300" value="" style="rounded=0;whiteSpace=wrap;html=1;fontSize=22;strokeColor=#82b366;fillColor=#d5e8d4;" vertex="1" parent="mRPW338xSlPoaJrdeVlL-299">
          <mxGeometry width="10" height="10" as="geometry" />
        </mxCell>
        <mxCell id="mRPW338xSlPoaJrdeVlL-301" style="edgeStyle=none;rounded=0;orthogonalLoop=1;jettySize=auto;html=1;exitX=1;exitY=1;exitDx=0;exitDy=0;fontSize=22;strokeColor=none;" edge="1" parent="mRPW338xSlPoaJrdeVlL-299" source="mRPW338xSlPoaJrdeVlL-300" target="mRPW338xSlPoaJrdeVlL-300">
          <mxGeometry relative="1" as="geometry" />
        </mxCell>
        <mxCell id="mRPW338xSlPoaJrdeVlL-302" value="" style="rounded=0;whiteSpace=wrap;html=1;fontSize=22;strokeColor=#d6b656;fillColor=#fff2cc;" vertex="1" parent="mRPW338xSlPoaJrdeVlL-299">
          <mxGeometry x="10" width="10" height="10" as="geometry" />
        </mxCell>
        <mxCell id="mRPW338xSlPoaJrdeVlL-303" value="" style="rounded=0;whiteSpace=wrap;html=1;fontSize=22;strokeColor=#82b366;fillColor=#d5e8d4;" vertex="1" parent="mRPW338xSlPoaJrdeVlL-299">
          <mxGeometry x="20" width="10" height="10" as="geometry" />
        </mxCell>
        <mxCell id="mRPW338xSlPoaJrdeVlL-304" value="" style="rounded=0;whiteSpace=wrap;html=1;fontSize=22;strokeColor=#d6b656;fillColor=#fff2cc;" vertex="1" parent="mRPW338xSlPoaJrdeVlL-299">
          <mxGeometry x="30" width="10" height="10" as="geometry" />
        </mxCell>
        <mxCell id="mRPW338xSlPoaJrdeVlL-305" value="" style="group" vertex="1" connectable="0" parent="1">
          <mxGeometry x="220" y="355" width="80" height="10" as="geometry" />
        </mxCell>
        <mxCell id="mRPW338xSlPoaJrdeVlL-306" value="" style="group;fillColor=#dae8fc;strokeColor=#6c8ebf;" vertex="1" connectable="0" parent="mRPW338xSlPoaJrdeVlL-305">
          <mxGeometry width="40" height="10" as="geometry" />
        </mxCell>
        <mxCell id="mRPW338xSlPoaJrdeVlL-307" value="" style="rounded=0;whiteSpace=wrap;html=1;fontSize=22;strokeColor=#82b366;fillColor=#d5e8d4;" vertex="1" parent="mRPW338xSlPoaJrdeVlL-306">
          <mxGeometry width="10" height="10" as="geometry" />
        </mxCell>
        <mxCell id="mRPW338xSlPoaJrdeVlL-308" style="edgeStyle=none;rounded=0;orthogonalLoop=1;jettySize=auto;html=1;exitX=1;exitY=1;exitDx=0;exitDy=0;fontSize=22;strokeColor=none;" edge="1" parent="mRPW338xSlPoaJrdeVlL-306" source="mRPW338xSlPoaJrdeVlL-307" target="mRPW338xSlPoaJrdeVlL-307">
          <mxGeometry relative="1" as="geometry" />
        </mxCell>
        <mxCell id="mRPW338xSlPoaJrdeVlL-309" value="" style="rounded=0;whiteSpace=wrap;html=1;fontSize=22;strokeColor=#d6b656;fillColor=#fff2cc;" vertex="1" parent="mRPW338xSlPoaJrdeVlL-306">
          <mxGeometry x="10" width="10" height="10" as="geometry" />
        </mxCell>
        <mxCell id="mRPW338xSlPoaJrdeVlL-310" value="" style="rounded=0;whiteSpace=wrap;html=1;fontSize=22;strokeColor=#82b366;fillColor=#d5e8d4;" vertex="1" parent="mRPW338xSlPoaJrdeVlL-306">
          <mxGeometry x="20" width="10" height="10" as="geometry" />
        </mxCell>
        <mxCell id="mRPW338xSlPoaJrdeVlL-311" value="" style="rounded=0;whiteSpace=wrap;html=1;fontSize=22;strokeColor=#d6b656;fillColor=#fff2cc;" vertex="1" parent="mRPW338xSlPoaJrdeVlL-306">
          <mxGeometry x="30" width="10" height="10" as="geometry" />
        </mxCell>
        <mxCell id="mRPW338xSlPoaJrdeVlL-312" value="" style="group;fillColor=#fff2cc;strokeColor=#d6b656;" vertex="1" connectable="0" parent="mRPW338xSlPoaJrdeVlL-305">
          <mxGeometry x="40" width="40" height="10" as="geometry" />
        </mxCell>
        <mxCell id="mRPW338xSlPoaJrdeVlL-313" value="" style="rounded=0;whiteSpace=wrap;html=1;fontSize=22;strokeColor=#82b366;fillColor=#d5e8d4;" vertex="1" parent="mRPW338xSlPoaJrdeVlL-312">
          <mxGeometry width="10" height="10" as="geometry" />
        </mxCell>
        <mxCell id="mRPW338xSlPoaJrdeVlL-314" style="edgeStyle=none;rounded=0;orthogonalLoop=1;jettySize=auto;html=1;exitX=1;exitY=1;exitDx=0;exitDy=0;fontSize=22;strokeColor=none;" edge="1" parent="mRPW338xSlPoaJrdeVlL-312" source="mRPW338xSlPoaJrdeVlL-313" target="mRPW338xSlPoaJrdeVlL-313">
          <mxGeometry relative="1" as="geometry" />
        </mxCell>
        <mxCell id="mRPW338xSlPoaJrdeVlL-315" value="" style="rounded=0;whiteSpace=wrap;html=1;fontSize=22;strokeColor=#d6b656;fillColor=#fff2cc;" vertex="1" parent="mRPW338xSlPoaJrdeVlL-312">
          <mxGeometry x="10" width="10" height="10" as="geometry" />
        </mxCell>
        <mxCell id="mRPW338xSlPoaJrdeVlL-316" value="" style="rounded=0;whiteSpace=wrap;html=1;fontSize=22;strokeColor=#82b366;fillColor=#d5e8d4;" vertex="1" parent="mRPW338xSlPoaJrdeVlL-312">
          <mxGeometry x="20" width="10" height="10" as="geometry" />
        </mxCell>
        <mxCell id="mRPW338xSlPoaJrdeVlL-317" value="" style="rounded=0;whiteSpace=wrap;html=1;fontSize=22;strokeColor=#d6b656;fillColor=#fff2cc;" vertex="1" parent="mRPW338xSlPoaJrdeVlL-312">
          <mxGeometry x="30" width="10" height="10" as="geometry" />
        </mxCell>
        <mxCell id="mRPW338xSlPoaJrdeVlL-355" style="rounded=0;orthogonalLoop=1;jettySize=auto;html=1;exitX=1;exitY=0;exitDx=0;exitDy=0;" edge="1" parent="1" source="mRPW338xSlPoaJrdeVlL-298">
          <mxGeometry relative="1" as="geometry">
            <mxPoint x="370" y="320" as="targetPoint" />
          </mxGeometry>
        </mxCell>
        <mxCell id="mRPW338xSlPoaJrdeVlL-356" style="rounded=0;orthogonalLoop=1;jettySize=auto;html=1;exitX=1;exitY=0;exitDx=0;exitDy=0;" edge="1" parent="1">
          <mxGeometry relative="1" as="geometry">
            <mxPoint x="259.76" y="355" as="sourcePoint" />
            <mxPoint x="259.76" y="320" as="targetPoint" />
          </mxGeometry>
        </mxCell>
      </root>
    </mxGraphModel>
  </diagram>
</mxfile>
